<?xml version="1.0" encoding="utf-8"?>
<!-- Generator: Adobe Illustrator 16.0.0, SVG Export Plug-In . SVG Version: 6.00 Build 0)  -->
<!DOCTYPE svg PUBLIC "-//W3C//DTD SVG 1.1//EN" "http://www.w3.org/Graphics/SVG/1.1/DTD/svg11.dtd">
<svg version="1.1" id="Layer_1" xmlns="http://www.w3.org/2000/svg" xmlns:xlink="http://www.w3.org/1999/xlink" x="0px" y="0px"
	 width="596.84px" height="666.994px" viewBox="0 0 596.84 666.994" enable-background="new 0 0 596.84 666.994"
	 xml:space="preserve">
<polygon fill="#B5956F" points="259.643,0 256.656,0.274 283.401,276.21 "/>
<polygon fill="#B5956F" points="317.638,666.994 320.626,666.72 293.517,386.817 "/>
<polygon fill="#B5956F" points="44.134,354.355 233.327,338.557 44.407,357.344 "/>
<polygon fill="#B5956F" points="556.708,310.484 343.864,328.446 556.436,307.496 "/>
<polygon fill="#B5956F" points="105.905,179.438 244.865,297.06 103.986,181.743 "/>
<polygon fill="#B5956F" points="465.932,122.853 325.033,289.778 463.626,120.934 "/>
<polygon fill="#B5956F" points="134.581,516.232 254.006,375.105 136.887,518.151 "/>
<polygon fill="#B5956F" points="354.552,507.407 308.046,383.479 357.349,506.321 "/>
<polygon fill="#B5956F" points="267.841,279.925 219.932,160.673 222.729,159.587 "/>
<polygon fill="#B5956F" points="475.808,262.439 340.854,313.225 474.722,259.642 "/>
<polygon fill="#B5956F" points="101.473,404.556 237.355,353.409 102.559,407.353 "/>
<polygon fill="#B5956F" points="236.915,310.704 12.19,213.315 13.4,210.569 "/>
<polygon fill="#B5956F" points="506.749,431.249 338.529,355.48 507.959,428.504 "/>
<polygon fill="#B5956F" points="266.936,382.753 193.634,552.815 190.889,551.605 "/>
<polygon fill="#B5956F" points="371.457,149.28 311.728,281.107 368.712,148.07 "/>
<polygon fill="#B5956F" points="303.071,385.091 354.464,563.267 351.575,564.074 "/>
<polygon fill="#B5956F" points="225.706,102.92 273.15,278.115 222.816,103.728 "/>
<polygon fill="#B5956F" points="235.477,348.367 37.685,405.247 36.877,402.358 "/>
<polygon fill="#B5956F" points="519.218,270.562 342.395,318.462 518.409,267.673 "/>
<polygon fill="#B5956F" points="573.251,495.416 336.005,360.157 574.723,492.802 "/>
<polygon fill="#B5956F" points="124.32,239.286 239.239,305.69 122.848,241.899 "/>
<polygon fill="#B5956F" points="448.759,52.085 316.668,283.704 446.145,50.614 "/>
<polygon fill="#B5956F" points="262.191,380.488 131.136,616.381 128.522,614.909 "/>
<polygon fill="#B5956F" points="117.5,52.657 258.582,284.675 114.945,54.229 "/>
<polygon fill="#B5956F" points="316.809,379.251 462.336,612.765 459.781,614.338 "/>
<polygon fill="#B5956F" points="242.087,362.158 42.292,486.926 40.718,484.371 "/>
<polygon fill="#B5956F" points="492.954,209.471 336.624,303.955 491.381,206.916 "/>
<polygon fill="#B5956F" points="56.469,276.725 233.966,320.491 55.775,279.644 "/>
<polygon fill="#B5956F" points="570.82,402.166 341.98,346.187 571.515,399.247 "/>
<polygon fill="#B5956F" points="345.412,101.326 301.929,277.64 342.493,100.632 "/>
<polygon fill="#B5956F" points="276.222,385.702 234.787,566.362 231.869,565.669 "/>
<polygon fill="#B5956F" points="181.073,127.452 260.999,281.737 178.42,128.854 "/>
<polygon fill="#B5956F" points="210.379,583.141 272.336,387.087 213.246,584.023 "/>
<polygon fill="#B5956F" points="93.379,486.264 246.303,367.486 95.238,488.618 "/>
<polygon fill="#B5956F" points="295.363,277.262 319.416,60.286 322.395,60.637 "/>
<polygon fill="#B5956F" points="305.3,413.032 359.587,661.208 355.673,662.032 "/>
<polygon fill="#B5956F" points="48.133,382.641 185.112,355.849 48.958,386.555 "/>
<polygon fill="#B5956F" points="580.17,527.743 465.925,449.652 583.448,522.717 "/>
<polygon fill="#B5956F" points="351.031,242.365 440.848,107.262 444.151,109.518 "/>
<polygon fill="#B5956F" points="564.23,190.531 435.766,256.23 562.36,186.996 "/>
<polygon fill="#B5956F" points="0,247.226 169.604,297.374 1.177,243.403 "/>
<polygon fill="#B5956F" points="157.809,34.904 230.598,206.005 154.145,36.509 "/>
<polygon fill="#B5956F" points="595.449,447.089 596.84,443.339 441.482,387.838 "/>
<polygon fill="#B5956F" points="170.674,632.205 240.186,467.117 174.378,633.716 "/>
<polygon fill="#B5956F" points="86.5,74.647 239.925,272.282 83.36,77.125 "/>
<polygon fill="#B5956F" points="380.719,344.893 577.323,366.043 576.854,370.015 "/>
</svg>
