<?xml version="1.0" encoding="utf-8"?>
<!-- Generator: Adobe Illustrator 17.0.0, SVG Export Plug-In . SVG Version: 6.00 Build 0)  -->
<!DOCTYPE svg PUBLIC "-//W3C//DTD SVG 1.1//EN" "http://www.w3.org/Graphics/SVG/1.1/DTD/svg11.dtd">
<svg version="1.1" id="Layer_1" xmlns="http://www.w3.org/2000/svg" xmlns:xlink="http://www.w3.org/1999/xlink" x="0px" y="0px"
	 width="35.123px" height="35.123px" viewBox="0 0 35.123 35.123" enable-background="new 0 0 35.123 35.123" xml:space="preserve">
<path fill="#9B7446" d="M32.032,0h-0.605H3.696H3.092H0v3.092v0.603v27.732v0.604v3.092h3.092h0.604h27.731h0.605h3.091v-3.092
	v-0.604V3.694V3.092V0H32.032z M28.555,8.712c-0.703-0.211-1.512-0.352-2.25-0.352c-0.913,0-2.879,0.598-2.879,1.757v2.774h4.672
	v4.672h-4.672v12.888h-4.705V17.563h-2.319v-4.672h2.319v-2.356c0-3.545,1.614-6.495,5.514-6.495c1.334,0,3.722,0.071,5.024,0.528
	L28.555,8.712z"/>
</svg>
