<?xml version="1.0" encoding="utf-8"?>
<!-- Generator: Adobe Illustrator 17.0.0, SVG Export Plug-In . SVG Version: 6.00 Build 0)  -->
<!DOCTYPE svg PUBLIC "-//W3C//DTD SVG 1.1//EN" "http://www.w3.org/Graphics/SVG/1.1/DTD/svg11.dtd">
<svg version="1.1" id="Layer_1" xmlns="http://www.w3.org/2000/svg" xmlns:xlink="http://www.w3.org/1999/xlink" x="0px" y="0px"
	 width="35.123px" height="35.123px" viewBox="0 0 35.123 35.123" enable-background="new 0 0 35.123 35.123" xml:space="preserve">
<g>
	<path fill="#9B7446" d="M23.429,18.721c0-3.23-2.636-5.828-5.867-5.828c-3.231,0-5.865,2.598-5.865,5.828s2.634,5.868,5.865,5.868
		C20.793,24.589,23.429,21.951,23.429,18.721z"/>
	<path fill="#9B7446" d="M26.799,18.583c0,5.127-4.143,9.271-9.237,9.271c-5.092,0-9.235-4.144-9.235-9.271
		c0-0.738,0.069-1.478,0.281-2.18H0v15.025v0.604v3.091h3.091h0.605h27.73h0.606h3.091v-3.091v-0.604V16.403h-8.605
		C26.729,17.105,26.799,17.845,26.799,18.583z"/>
	<path fill="#9B7446" d="M32.032,0h-0.606H3.696H3.091H0v3.094v0.602v8.001h11.696c1.758-1.267,3.616-2.353,5.865-2.353
		c2.18,0,4.145,1.086,5.867,2.353h11.694V3.696V3.094V0H32.032z M32.769,8.15c0,0.667-0.524,1.231-1.193,1.231h-4.6
		c-0.668,0-1.23-0.564-1.23-1.231V3.55c0-0.668,0.562-1.196,1.23-1.196h4.6c0.669,0,1.193,0.528,1.193,1.196V8.15z"/>
</g>
</svg>
