<?xml version="1.0" encoding="utf-8"?>
<!-- Generator: Adobe Illustrator 16.0.0, SVG Export Plug-In . SVG Version: 6.00 Build 0)  -->
<!DOCTYPE svg PUBLIC "-//W3C//DTD SVG 1.1//EN" "http://www.w3.org/Graphics/SVG/1.1/DTD/svg11.dtd">
<svg version="1.1" id="Layer_1" xmlns="http://www.w3.org/2000/svg" xmlns:xlink="http://www.w3.org/1999/xlink" x="0px" y="0px"
	 width="800px" height="600px" viewBox="0 0 800 600" enable-background="new 0 0 800 600" xml:space="preserve">
<g>
	<circle fill="#B5956F" cx="2056.541" cy="1003.347" r="4.666"/>
</g>
<g>
	<circle fill="#B5956F" cx="2048.055" cy="983.548" r="4.666"/>
</g>
<g>
	<circle fill="#B5956F" cx="2180.284" cy="854.147" r="4.667"/>
</g>
<g>
	<circle fill="#B5956F" cx="2120.887" cy="866.875" r="4.666"/>
</g>
<g>
	<circle fill="#B5956F" cx="2227.66" cy="932.637" r="4.665"/>
</g>
<g>
	<circle fill="#B5956F" cx="2136.443" cy="975.77" r="4.666"/>
</g>
<g>
	<polygon fill="#B5956F" points="1496.92,1097.209 1496.213,1096.502 1825.289,767.426 1853.837,767.162 1885.104,735.895 
		1909.355,735.686 1938.435,706.606 1944.522,706.175 1963.025,687.673 1963.232,687.672 2018.33,687.522 2050.413,655.439 
		2061.775,655.391 2119.377,597.789 2118.805,578.562 2118.957,578.409 2422.693,274.859 2423.4,275.566 2119.816,578.964 
		2120.389,598.191 2062.191,656.389 2050.829,656.438 2018.746,688.521 2018.539,688.521 1963.441,688.671 1944.966,707.146 
		1938.878,707.577 1909.773,736.682 1885.522,736.891 1854.255,768.158 1825.707,768.422 	"/>
</g>
<g>
	<polygon fill="#B5956F" points="1853.93,728.887 1853.723,728.887 1712,728.764 1712,727.764 1853.516,727.887 1876.044,705.357 
		1900.295,705.148 1929.397,676.045 1936.192,676.321 1954.671,657.844 1954.873,657.841 2009.268,656.987 2041.352,624.902 
		2052.715,624.854 2101.08,576.488 2100.177,554.765 2100.332,554.609 2401.48,253.646 2402.188,254.354 2101.194,555.161 
		2102.098,576.885 2053.131,625.852 2041.768,625.9 2009.688,657.981 2009.485,657.984 1955.091,658.838 1936.589,677.339 
		1929.794,677.062 1900.713,706.145 1876.462,706.354 	"/>
</g>
<g>
	<polygon fill="#B5956F" points="1549.246,1083.067 1548.539,1082.36 1833.371,797.527 1861.919,797.265 1896.453,762.729 
		1928.571,763.139 1949.421,742.289 1950.297,735.757 1958.815,727.238 1967.495,727.044 1984.81,709.729 2026.065,709.485 
		2032.502,703.049 2052.457,702.893 2077.199,678.15 2085.527,678.082 2085.535,679.082 2077.617,679.146 2052.875,703.889 
		2032.92,704.045 2026.481,710.483 1985.226,710.727 1967.919,728.034 1959.239,728.229 1951.242,736.226 1950.366,742.758 
		1928.979,764.145 1896.861,763.735 1862.337,798.261 1833.789,798.523 	"/>
</g>
<g>
	<polygon fill="#B5956F" points="2101.562,655.201 2100.855,654.494 2107.365,647.984 2107.733,639.132 2107.871,638.994 
		2492.74,254.311 2493.447,255.018 2108.716,639.563 2108.348,648.416 	"/>
</g>
<g>
	<polygon fill="#B5956F" points="1592.38,1192.669 1591.673,1191.962 1931.491,852.144 1956.812,852.278 2000.766,808.324 
		2062.416,808.9 2071.158,800.158 2071.865,800.865 2062.826,809.904 2001.176,809.328 1957.224,853.28 1931.903,853.146 	"/>
</g>
<g>
	<polygon fill="#B5956F" points="1588.845,1189.133 1588.138,1188.426 1927.961,848.603 1953.989,849.443 2007.72,795.714 
		2032.153,795.321 2041.459,786.016 2042.166,786.723 2032.573,796.315 2008.14,796.708 1954.39,850.457 1928.361,849.616 	"/>
</g>
<g>
	<polygon fill="#B5956F" points="1561.974,1162.263 1561.267,1161.556 1894.557,828.266 1894.762,828.264 1947.27,827.88 
		2003.082,772.066 2003.738,754.439 2024.232,733.945 2031.44,733.571 2056.735,758.866 2081.473,758.729 2088.835,751.367 
		2089.542,752.074 2081.889,759.728 2056.323,759.868 2031.048,734.593 2024.668,734.924 2004.723,754.869 2004.066,772.496 
		1947.688,828.876 1947.482,828.878 1894.975,829.262 	"/>
</g>
<g>
	<polygon fill="#B5956F" points="1548.539,1148.827 1547.832,1148.12 1865.921,830.032 1872.353,830.671 1893.36,809.663 
		1925.364,809.85 1925.358,810.85 1893.772,810.665 1872.726,831.712 1866.294,831.073 	"/>
</g>
<g>
	<polygon fill="#B5956F" points="1540.054,1140.343 1539.347,1139.636 1861.755,817.228 1870.616,816.851 1892.108,795.358 
		1910.27,795.583 1924.131,781.722 1937.106,781.474 1958.773,759.807 1986.778,760.086 2019.67,727.194 2035.511,726.91 
		2041.592,720.829 2065.3,721.163 2082.471,703.991 2083.178,704.698 2065.708,722.169 2042,721.835 2035.933,727.902 
		2020.092,728.187 1987.188,761.09 1959.184,760.811 1937.528,782.466 1924.553,782.714 1910.678,796.589 1892.517,796.364 
		1871.048,817.833 1862.187,818.21 	"/>
</g>
<g>
	<polygon fill="#B5956F" points="2129.287,1531 2128.287,1531 2128.287,1238.004 2238.524,1127.765 2237.959,1032.013 
		2204.35,998.404 2203.856,988.485 2240.156,952.186 2240.863,952.893 2204.878,988.878 2205.33,997.97 2238.957,1031.597 
		2238.958,1031.802 2239.526,1128.177 2129.287,1238.418 	"/>
</g>
<g>
	<polygon fill="#B5956F" points="2119.387,1482.5 2118.387,1482.5 2118.387,1228.104 2223.498,1122.993 2222.689,1036.542 
		2177.042,990.896 2176.942,965.902 2190.475,952.37 2207.659,952.155 2227.428,932.387 2228.135,933.094 2208.079,953.149 
		2190.895,953.364 2177.944,966.314 2178.04,990.479 2223.686,1036.124 2224.502,1123.403 2119.387,1228.518 	"/>
</g>
<g>
	<polygon fill="#B5956F" points="2105,1425 2104,1425 2104,1213.254 2104.146,1213.107 2205.598,1111.446 2206.361,1037.166 
		2154.854,985.642 2155.161,968.942 2144.927,958.638 2145.636,957.933 2156.169,968.538 2155.861,985.235 2207.365,1036.756 
		2207.363,1036.966 2206.594,1111.864 2206.449,1112.009 2105,1213.668 	"/>
</g>
<g>
	<polygon fill="#B5956F" points="2099,1424 2098,1424 2098,1207.598 2192.809,1112.748 2193.573,1044.204 2136.941,987.579 
		2136.682,974.97 2137.682,974.948 2137.934,987.157 2194.577,1043.794 2194.575,1044.005 2193.805,1113.166 2099,1208.012 	"/>
</g>
<g>
	<polygon fill="#B5956F" points="2083,1425 2082,1425 2082,1191.334 2082.146,1191.188 2168.128,1105.017 2168.351,1051.489 
		2099.995,983.122 2100.015,957.98 2146.717,911.283 2146.514,887.452 2178.829,855.152 2179.536,855.859 2147.518,887.862 
		2147.721,911.693 2101.015,958.395 2100.995,982.708 2169.353,1051.077 2169.126,1105.433 2168.98,1105.578 2083,1191.748 	"/>
</g>
<g>
	<polygon fill="#B5956F" points="2076,1422 2075,1422 2075,1184.971 2075.146,1184.824 2158.022,1102.073 2157.693,1054.985 
		2084.207,981.498 2084.324,965.164 2141.321,908.149 2140.945,885.861 2141.095,885.711 2165.849,860.888 2165.783,847.037 
		2166.783,847.033 2166.851,861.3 2166.704,861.447 2141.953,886.268 2142.329,908.556 2085.32,965.582 2085.21,981.086 
		2158.691,1054.567 2158.692,1054.772 2159.024,1102.485 2158.877,1102.633 2076,1185.385 	"/>
</g>
<g>
	<polygon fill="#B5956F" points="1616.479,1246.35 1615.772,1245.643 1960.296,901.12 1959.992,888.696 2008.601,840.087 
		2029.396,839.99 2029.4,840.99 2009.017,841.085 1961.002,889.101 1961.306,901.524 	"/>
</g>
<g>
	<polygon fill="#B5956F" points="2095.377,739.168 2075.798,739.133 2075.8,738.133 2094.963,738.168 2099.782,733.35 
		2130.56,733.685 2142.229,722.015 2142.085,689.633 2175.975,655.742 2175.291,645.112 2202.16,618.243 2252.467,618.23 
		2640.283,229.871 2640.99,230.578 2252.881,619.23 2202.574,619.243 2176.318,645.499 2177.002,656.129 2143.087,690.045 
		2143.231,722.427 2130.97,734.688 2100.192,734.354 	"/>
</g>
<g>
	<polygon fill="#B5956F" points="2064.493,745.814 2063.493,745.787 2063.895,731.053 2076.336,718.612 2093.518,718.4 
		2119.323,692.595 2119.021,680.169 2137.993,661.197 2138.507,655.026 2138.637,654.896 2565.251,227.4 2565.958,228.106 
		2139.474,655.474 2138.96,661.645 2120.03,680.573 2120.333,692.999 2093.938,719.395 2076.756,719.606 2064.883,731.479 	"/>
</g>
<g>
	<polygon fill="#B5956F" points="2098.027,703.991 2097.32,703.284 2108.868,691.736 2109.493,678.383 2129.131,658.746 
		2128.832,647.73 2167.324,609.238 2168.031,609.945 2129.844,648.133 2130.143,659.148 2110.474,678.816 2109.849,692.17 	"/>
</g>
<g>
	<polygon fill="#B5956F" points="1933.131,977 1926,977 1926,976 1932.705,976 1940.176,968.218 1960.902,968.396 1976.836,952.462 
		1976.643,945.585 2021.149,901.079 2020.846,888.658 2055.027,854.481 2055.05,844.569 2055.196,844.424 2092.771,806.87 
		2106.204,806.207 2115.47,797.025 2136.627,797.377 2136.611,798.377 2115.874,798.033 2106.636,807.188 2093.205,807.851 
		2056.049,844.985 2056.025,854.897 2021.855,889.062 2022.159,901.483 1977.654,945.987 1977.848,952.864 1961.312,969.4 
		1940.598,969.222 	"/>
</g>
<g>
	<polygon fill="#B5956F" points="1672.564,1294.917 1671.857,1294.21 1998.49,967.577 1998.513,957.654 1998.659,957.509 
		2021.809,934.36 2021.45,919.161 2035.785,904.825 2035.918,893.38 2036.062,893.236 2070.357,858.94 2070.054,846.517 
		2095.833,820.737 2110.948,821.178 2122.069,810.057 2122.776,810.764 2111.351,822.189 2096.235,821.749 2071.063,846.921 
		2071.367,859.345 2036.914,893.8 2036.781,905.245 2036.637,905.389 2022.46,919.565 2022.818,934.765 1999.513,958.07 
		1999.489,967.993 1999.343,968.139 	"/>
</g>
<g>
	<polygon fill="#B5956F" points="1656.554,1333.554 1655.847,1332.847 2020.675,968.021 2020.535,956.847 2029.155,948.226 
		2028.904,924.436 2042.451,910.889 2053.27,911.384 2072.816,891.838 2072.818,879.436 2073.818,879.436 2073.816,892.252 
		2053.664,912.403 2042.846,911.908 2029.908,924.846 2030.159,948.636 2021.541,957.255 2021.681,968.429 	"/>
</g>
<g>
	<polygon fill="#B5956F" points="1674.024,1350.024 1673.317,1349.317 2039.032,983.604 2046.536,983.742 2046.519,984.742 
		2039.438,984.611 	"/>
</g>
<g>
	<polygon fill="#B5956F" points="1686.46,1364.46 1685.753,1363.753 2011.131,1038.376 2029.741,1038.15 2055.926,1011.966 
		2055.929,1002.818 2056.929,1002.818 2056.926,1012.38 2030.161,1039.145 2011.551,1039.37 	"/>
</g>
<g>
	<polygon fill="#B5956F" points="2060,1406 2059,1406 2059,1168.707 2114.073,1113.629 2113.614,1105.658 2103.465,1095.51 
		2085.299,1095.729 2085.15,1095.579 2073.298,1083.726 2074.234,1072.852 2092.268,1054.818 2092.599,1043.628 2085.614,1036.642 
		2085.775,1012.756 2058.485,985.455 2059.009,957.932 2119.643,897.259 2119.613,865.6 2120.613,865.6 2120.643,897.673 
		2060.001,958.354 2059.493,985.049 2086.777,1012.344 2086.616,1036.229 2093.61,1043.226 2093.256,1055.244 2075.199,1073.301 
		2074.335,1083.348 2085.708,1094.723 2103.875,1094.504 2114.591,1105.221 2115.097,1114.02 2060,1169.121 	"/>
</g>
<g>
	<polygon fill="#B5956F" points="2068,1421 2067,1421 2067,1177.19 2067.147,1177.044 2139.705,1104.707 2140.33,1087.203 
		2131.129,1078.083 2130.777,1072.69 2131.775,1072.626 2132.102,1077.64 2141.346,1086.801 2140.689,1105.137 2140.55,1105.276 
		2068,1177.606 	"/>
</g>
<g>
	<g>
		<circle fill="#B5956F" cx="2243.217" cy="949.607" r="7.582"/>
		<path fill="#B5956F" d="M2243.217,957.689c-2.159,0-4.188-0.841-5.715-2.367c-1.527-1.526-2.368-3.556-2.368-5.715
			s0.841-4.188,2.368-5.715c1.525-1.527,3.555-2.368,5.714-2.368c2.158,0,4.188,0.841,5.716,2.368
			c1.526,1.526,2.367,3.556,2.367,5.715c0.001,2.159-0.84,4.188-2.367,5.715C2247.405,956.849,2245.376,957.689,2243.217,957.689z
			 M2243.216,942.524c-1.892,0-3.67,0.737-5.007,2.075c-1.338,1.338-2.075,3.116-2.075,5.008s0.737,3.67,2.075,5.008
			s3.116,2.074,5.008,2.074s3.67-0.736,5.008-2.074s2.075-3.116,2.074-5.008c0-1.892-0.736-3.67-2.074-5.008
			C2246.886,943.262,2245.107,942.524,2243.216,942.524z"/>
	</g>
	<g>
		<circle fill="#B5956F" cx="2243.216" cy="949.607" r="4.666"/>
	</g>
</g>
<g>
	<g>
		<circle fill="#B5956F" cx="1927.14" cy="808.893" r="7.582"/>
		<path fill="#B5956F" d="M1927.14,816.975L1927.14,816.975c-2.159,0-4.188-0.841-5.715-2.367c-1.527-1.526-2.368-3.556-2.367-5.715
			c0-2.159,0.841-4.188,2.367-5.715s3.556-2.367,5.715-2.367c2.158,0,4.188,0.841,5.715,2.367c3.151,3.151,3.152,8.278,0.001,11.43
			C1931.329,816.134,1929.299,816.975,1927.14,816.975z M1927.14,801.811c-1.892,0-3.67,0.736-5.008,2.074s-2.074,3.116-2.074,5.008
			c-0.001,1.892,0.736,3.67,2.074,5.008s3.116,2.074,5.008,2.074s3.671-0.736,5.009-2.074c2.761-2.761,2.761-7.254-0.001-10.016
			C1930.81,802.547,1929.03,801.811,1927.14,801.811z"/>
	</g>
	<g>
		<circle fill="#B5956F" cx="1927.14" cy="808.893" r="4.666"/>
	</g>
</g>
<g>
	<g>
		<circle fill="#B5956F" cx="2064.318" cy="746.667" r="7.582"/>
		<path fill="#B5956F" d="M2064.318,754.75c-2.159,0-4.188-0.841-5.715-2.367c-3.151-3.151-3.151-8.278,0-11.431
			c1.526-1.526,3.556-2.367,5.714-2.367c2.159,0,4.189,0.841,5.716,2.368c3.151,3.151,3.151,8.278,0,11.43
			C2068.507,753.909,2066.478,754.75,2064.318,754.75z M2064.317,739.585c-1.892,0-3.67,0.736-5.007,2.074
			c-2.761,2.762-2.761,7.256,0,10.017c1.338,1.338,3.116,2.074,5.008,2.074s3.67-0.736,5.008-2.074
			c2.762-2.762,2.762-7.254,0-10.016C2067.988,740.322,2066.209,739.585,2064.317,739.585z"/>
	</g>
	<g>
		<circle fill="#B5956F" cx="2064.318" cy="746.667" r="4.666"/>
	</g>
</g>
<g>
	<g>
		<circle fill="#B5956F" cx="2132.201" cy="1067.694" r="7.583"/>
		<path fill="#B5956F" d="M2132.201,1075.776C2132.2,1075.776,2132.201,1075.776,2132.201,1075.776
			c-2.159,0-4.189-0.841-5.716-2.367c-3.151-3.152-3.151-8.279,0-11.431c1.527-1.526,3.557-2.367,5.715-2.367
			c2.159,0,4.188,0.841,5.716,2.367c3.15,3.151,3.15,8.279,0,11.431C2136.39,1074.936,2134.359,1075.776,2132.201,1075.776z
			 M2132.2,1060.611c-1.891,0-3.67,0.736-5.008,2.074c-2.761,2.761-2.761,7.255,0,10.017c1.338,1.338,3.116,2.074,5.008,2.074
			c1.893,0,3.671-0.736,5.009-2.074c2.761-2.762,2.761-7.255,0-10.017C2135.871,1061.348,2134.092,1060.611,2132.2,1060.611z"/>
	</g>
	<g>
		<circle fill="#B5956F" cx="2132.201" cy="1067.694" r="4.666"/>
	</g>
</g>
<g>
	<g>
		<circle fill="#B5956F" cx="2143.514" cy="958.799" r="7.583"/>
		<path fill="#B5956F" d="M2143.515,966.883c-2.159,0-4.188-0.841-5.716-2.368c-3.151-3.152-3.151-8.279,0-11.431
			c1.526-1.526,3.556-2.367,5.715-2.367c2.158,0,4.188,0.841,5.716,2.368c3.151,3.151,3.151,8.278,0,11.43
			C2147.703,966.042,2145.674,966.883,2143.515,966.883z M2143.514,951.717c-1.892,0-3.67,0.737-5.008,2.074
			c-2.761,2.761-2.761,7.255,0,10.017c1.338,1.338,3.117,2.075,5.009,2.075s3.67-0.737,5.008-2.075
			c2.762-2.762,2.762-7.254,0-10.016C2147.185,952.454,2145.405,951.717,2143.514,951.717z"/>
	</g>
	<g>
		<circle fill="#B5956F" cx="2143.515" cy="958.8" r="4.667"/>
	</g>
</g>
<g>
	<polygon fill="#B5956F" points="1733.381,1341.582 1732.674,1340.875 2016.152,1057.396 2028.763,1057.575 2037.924,1066.736 
		2037.217,1067.443 2028.343,1058.569 2016.561,1058.401 	"/>
</g>
<g>
	<polygon fill="#B5956F" points="1788.964,1401.964 1788.257,1401.257 2068.889,1120.623 2068.842,1103.334 2069.842,1103.332 
		2069.891,1121.036 	"/>
</g>
<g>
	<circle fill="#B5956F" cx="2069.268" cy="1100.928" r="4.666"/>
	<path fill="#B5956F" d="M2069.269,1106.094c-1.38,0-2.678-0.537-3.653-1.513c-2.015-2.015-2.015-5.291,0-7.306
		c0.976-0.976,2.273-1.513,3.653-1.513c1.379,0,2.677,0.537,3.652,1.513s1.513,2.273,1.513,3.653c0,1.379-0.537,2.677-1.513,3.652
		S2070.647,1106.094,2069.269,1106.094z M2069.269,1096.763c-1.113,0-2.159,0.433-2.946,1.22c-1.624,1.624-1.624,4.268,0,5.892
		c0.787,0.787,1.833,1.22,2.946,1.22c1.112,0,2.158-0.433,2.945-1.22s1.22-1.833,1.22-2.945c0-1.113-0.433-2.159-1.22-2.946
		S2070.381,1096.763,2069.269,1096.763z"/>
</g>
<g>
	<circle fill="#B5956F" cx="2085.532" cy="1023.854" r="4.666"/>
	<path fill="#B5956F" d="M2085.532,1029.02c-1.38,0-2.678-0.538-3.653-1.514c-2.014-2.014-2.014-5.291,0-7.305
		c0.976-0.977,2.273-1.514,3.653-1.514c1.379,0,2.677,0.537,3.652,1.514c2.014,2.014,2.014,5.291,0,7.305
		C2088.209,1028.481,2086.911,1029.02,2085.532,1029.02z M2085.532,1019.688c-1.113,0-2.159,0.434-2.946,1.221
		c-1.624,1.624-1.624,4.267,0,5.891c0.787,0.787,1.833,1.221,2.946,1.221c1.112,0,2.158-0.434,2.945-1.221
		c1.624-1.624,1.624-4.267,0-5.891C2087.69,1020.121,2086.645,1019.688,2085.532,1019.688z"/>
</g>
<g>
	<circle fill="#B5956F" cx="2100.381" cy="970.82" r="4.665"/>
	<path fill="#B5956F" d="M2100.381,975.986c-1.38,0-2.677-0.538-3.652-1.514c-2.014-2.014-2.014-5.291,0-7.305
		c0.976-0.976,2.272-1.513,3.652-1.513s2.677,0.537,3.652,1.513c2.014,2.014,2.014,5.291,0,7.305
		C2103.058,975.448,2101.761,975.986,2100.381,975.986z M2100.381,966.655c-1.112,0-2.158,0.433-2.945,1.22
		c-1.624,1.624-1.624,4.267,0,5.891c0.787,0.787,1.833,1.221,2.945,1.221s2.158-0.434,2.945-1.221c1.624-1.624,1.624-4.267,0-5.891
		C2102.539,967.088,2101.493,966.655,2100.381,966.655z"/>
</g>
<g>
	<circle fill="#B5956F" cx="1988.013" cy="1060.987" r="4.666"/>
	<path fill="#B5956F" d="M1988.013,1066.152c-1.379,0-2.677-0.537-3.652-1.513s-1.513-2.273-1.513-3.652
		c0-1.38,0.537-2.678,1.513-3.653s2.273-1.513,3.652-1.513c1.38,0,2.678,0.537,3.653,1.513c2.015,2.015,2.015,5.291,0,7.306
		C1990.69,1065.615,1989.393,1066.152,1988.013,1066.152z M1988.013,1056.821c-1.112,0-2.158,0.433-2.945,1.22
		s-1.22,1.833-1.22,2.946c0,1.112,0.433,2.158,1.22,2.945s1.833,1.22,2.945,1.22c1.113,0,2.159-0.433,2.946-1.22
		c1.624-1.624,1.624-4.268,0-5.892C1990.172,1057.254,1989.126,1056.821,1988.013,1056.821z"/>
</g>
<g>
	<circle fill="#B5956F" cx="2037.448" cy="1067.694" r="4.666"/>
</g>
<g>
	<circle fill="#B5956F" cx="2041.691" cy="786.266" r="4.666"/>
</g>
<g>
	<circle fill="#B5956F" cx="2085.532" cy="677.371" r="4.666"/>
</g>
<g>
	<circle fill="#B5956F" cx="2029.67" cy="840.713" r="4.666"/>
</g>
<g>
	<circle fill="#B5956F" cx="2101.088" cy="654.744" r="4.666"/>
</g>
<g>
	<circle fill="#B5956F" cx="2166.142" cy="847.077" r="4.666"/>
	<path fill="#B5956F" d="M2166.143,852.242c-1.38,0-2.678-0.537-3.653-1.513c-0.977-0.976-1.514-2.273-1.514-3.652
		c0-1.38,0.537-2.678,1.514-3.653c0.976-0.976,2.273-1.513,3.653-1.513c1.379,0,2.677,0.537,3.652,1.513s1.513,2.273,1.513,3.653
		c0,1.379-0.537,2.677-1.513,3.652S2167.521,852.242,2166.143,852.242z M2166.143,842.911c-1.113,0-2.159,0.433-2.946,1.22
		s-1.221,1.833-1.221,2.946c0,1.112,0.434,2.158,1.221,2.945s1.833,1.22,2.946,1.22c1.112,0,2.158-0.433,2.945-1.22
		s1.22-1.833,1.22-2.945c0-1.113-0.433-2.159-1.22-2.946S2167.255,842.911,2166.143,842.911z"/>
</g>
<g>
	<circle fill="#B5956F" cx="2123.008" cy="809.6" r="4.666"/>
	<path fill="#B5956F" d="M2123.009,814.766c-1.38,0-2.678-0.537-3.653-1.513c-2.015-2.015-2.015-5.291,0-7.306
		c0.976-0.976,2.273-1.513,3.653-1.513c1.379,0,2.677,0.537,3.652,1.513s1.513,2.273,1.513,3.653c0,1.379-0.537,2.677-1.513,3.652
		S2124.388,814.766,2123.009,814.766z M2123.009,805.435c-1.113,0-2.159,0.433-2.946,1.22c-1.624,1.624-1.624,4.268,0,5.892
		c0.787,0.787,1.833,1.22,2.946,1.22c1.112,0,2.158-0.433,2.945-1.22s1.22-1.833,1.22-2.945c0-1.113-0.433-2.159-1.22-2.946
		S2124.121,805.435,2123.009,805.435z"/>
</g>
<g>
	<circle fill="#B5956F" cx="2090.481" cy="750.203" r="4.666"/>
	<path fill="#B5956F" d="M2090.481,755.369c-1.38,0-2.678-0.538-3.653-1.514c-2.014-2.014-2.014-5.291,0-7.305
		c0.976-0.976,2.273-1.513,3.653-1.513s2.678,0.537,3.653,1.513c2.014,2.014,2.014,5.291,0,7.305
		C2093.159,754.831,2091.861,755.369,2090.481,755.369z M2090.481,746.038c-1.113,0-2.159,0.433-2.946,1.22
		c-1.624,1.624-1.624,4.267,0,5.891c0.787,0.787,1.833,1.221,2.946,1.221s2.159-0.434,2.946-1.221c1.624-1.624,1.624-4.267,0-5.891
		C2092.641,746.471,2091.595,746.038,2090.481,746.038z"/>
</g>
<g>
	<circle fill="#B5956F" cx="2077.046" cy="738.182" r="4.666"/>
	<path fill="#B5956F" d="M2077.046,743.348c-1.379,0-2.677-0.537-3.652-1.513s-1.513-2.273-1.513-3.652
		c0-1.38,0.537-2.678,1.513-3.653s2.273-1.513,3.652-1.513c1.38,0,2.678,0.537,3.653,1.513c2.015,2.015,2.015,5.291,0,7.306
		C2079.724,742.811,2078.426,743.348,2077.046,743.348z M2077.046,734.017c-1.112,0-2.158,0.433-2.945,1.22s-1.22,1.833-1.22,2.946
		c0,1.112,0.433,2.158,1.22,2.945s1.833,1.22,2.945,1.22c1.113,0,2.159-0.433,2.946-1.22c1.624-1.624,1.624-4.268,0-5.892
		C2079.205,734.449,2078.159,734.017,2077.046,734.017z"/>
</g>
<g>
	<circle fill="#B5956F" cx="2096.845" cy="704.241" r="4.666"/>
	<path fill="#B5956F" d="M2096.845,709.407c-1.379,0-2.677-0.537-3.652-1.513s-1.513-2.273-1.513-3.653s0.537-2.678,1.513-3.653
		s2.273-1.513,3.652-1.513c1.38,0,2.678,0.537,3.653,1.513c2.015,2.015,2.015,5.292,0,7.307
		C2099.522,708.87,2098.225,709.407,2096.845,709.407z M2096.845,700.075c-1.112,0-2.158,0.433-2.945,1.22s-1.22,1.833-1.22,2.946
		s0.433,2.159,1.22,2.946s1.833,1.22,2.945,1.22c1.113,0,2.159-0.433,2.946-1.22c1.625-1.625,1.625-4.268,0-5.893
		C2099.004,700.508,2097.958,700.075,2096.845,700.075z"/>
</g>
<g>
	<circle fill="#B5956F" cx="2108.159" cy="691.513" r="4.666"/>
	<path fill="#B5956F" d="M2108.159,696.68c-1.38,0-2.678-0.538-3.653-1.514s-1.513-2.273-1.513-3.653
		c0-1.379,0.537-2.677,1.513-3.652s2.273-1.513,3.653-1.513s2.678,0.537,3.653,1.513s1.513,2.273,1.513,3.652
		c0,1.38-0.537,2.678-1.513,3.653S2109.539,696.68,2108.159,696.68z M2108.159,687.348c-1.113,0-2.159,0.433-2.946,1.22
		s-1.22,1.833-1.22,2.945c0,1.113,0.433,2.159,1.22,2.946s1.833,1.221,2.946,1.221s2.159-0.434,2.946-1.221s1.22-1.833,1.22-2.946
		c0-1.112-0.433-2.158-1.22-2.945S2109.272,687.348,2108.159,687.348z"/>
</g>
<g>
	<circle fill="#B5956F" cx="1985.123" cy="981.427" r="4.666"/>
	<path fill="#B5956F" d="M1985.122,986.593c-1.379,0-2.677-0.537-3.652-1.513s-1.513-2.273-1.513-3.653s0.537-2.678,1.513-3.653
		s2.273-1.513,3.652-1.513c1.38,0,2.678,0.537,3.653,1.513c2.015,2.015,2.015,5.292,0,7.307
		C1987.8,986.056,1986.502,986.593,1985.122,986.593z M1985.122,977.261c-1.112,0-2.158,0.433-2.945,1.22s-1.22,1.833-1.22,2.946
		s0.433,2.159,1.22,2.946s1.833,1.22,2.945,1.22c1.113,0,2.159-0.433,2.946-1.22c1.625-1.625,1.625-4.268,0-5.893
		C1987.281,977.693,1986.235,977.261,1985.122,977.261z"/>
</g>
<g>
	<circle fill="#B5956F" cx="2072.804" cy="798.993" r="4.667"/>
	<path fill="#B5956F" d="M2072.804,804.159c-1.38,0-2.678-0.537-3.653-1.513c-2.014-2.014-2.014-5.292,0-7.307
		c0.976-0.976,2.273-1.513,3.653-1.513s2.678,0.537,3.653,1.513c2.014,2.015,2.014,5.293,0,7.307
		C2075.481,803.622,2074.184,804.159,2072.804,804.159z M2072.804,794.827c-1.113,0-2.159,0.433-2.946,1.22
		c-1.624,1.625-1.624,4.269,0,5.893c0.787,0.787,1.833,1.22,2.946,1.22s2.159-0.433,2.946-1.22c1.624-1.624,1.624-4.268,0-5.893
		C2074.963,795.26,2073.917,794.827,2072.804,794.827z"/>
</g>
<g>
	<g>
		<circle fill="#B5956F" cx="2055.833" cy="1134.162" r="7.582"/>
		<path fill="#B5956F" d="M2055.834,1142.244c-2.159,0-4.189-0.841-5.716-2.367c-1.527-1.526-2.368-3.556-2.367-5.715
			c0-2.159,0.841-4.188,2.367-5.715s3.557-2.367,5.715-2.367s4.188,0.841,5.715,2.367c1.527,1.526,2.368,3.556,2.368,5.715
			s-0.841,4.188-2.367,5.715S2057.992,1142.244,2055.834,1142.244z M2055.833,1127.08c-1.892,0-3.67,0.736-5.008,2.074
			s-2.074,3.116-2.074,5.008c-0.001,1.892,0.736,3.67,2.074,5.008s3.116,2.074,5.009,2.074c1.892,0,3.67-0.736,5.008-2.074
			s2.074-3.116,2.074-5.008s-0.737-3.67-2.075-5.008S2057.725,1127.08,2055.833,1127.08z"/>
	</g>
	<g>
		<circle fill="#B5956F" cx="2055.833" cy="1134.162" r="4.666"/>
	</g>
</g>
<g>
	<polygon fill="#B5956F" points="1700.665,1404.767 1699.958,1404.06 1909.245,1194.772 1917.382,1195.121 1959.598,1152.904 
		1960.305,1153.611 1917.778,1196.139 1909.642,1195.79 	"/>
</g>
<g>
	<polygon fill="#B5956F" points="1703.786,1408.888 1703.079,1408.181 1908.012,1203.249 1924.739,1203.491 1989.705,1138.524 
		1989.796,1125.347 1990.796,1125.354 1990.703,1138.942 1990.558,1139.087 1925.147,1204.497 1908.42,1204.255 	"/>
</g>
<g>
	<polygon fill="#B5956F" points="1707.736,1411.838 1707.029,1411.131 1909.605,1208.554 1929.017,1208.941 2003.127,1134.831 
		2002.878,1118.11 2015.769,1105.22 2015.971,1105.216 2035.905,1104.882 2064.957,1075.83 2065.664,1076.537 2036.327,1105.874 
		2036.125,1105.878 2016.19,1106.212 2003.884,1118.519 2004.133,1135.239 1929.423,1209.949 1910.012,1209.562 	"/>
</g>
<g>
	<circle fill="#B5956F" cx="1990.068" cy="1125.412" r="4.666"/>
	<path fill="#B5956F" d="M1990.067,1130.578c-1.379,0-2.677-0.538-3.652-1.514s-1.513-2.273-1.513-3.653
		c0-1.379,0.537-2.677,1.513-3.652s2.273-1.513,3.652-1.513c1.38,0,2.678,0.537,3.653,1.513c2.015,2.015,2.015,5.291,0,7.306
		C1992.745,1130.04,1991.447,1130.578,1990.067,1130.578z M1990.067,1121.246c-1.112,0-2.158,0.433-2.945,1.22
		s-1.22,1.833-1.22,2.945c0,1.113,0.433,2.159,1.22,2.946s1.833,1.221,2.945,1.221c1.113,0,2.159-0.434,2.946-1.221
		c1.624-1.624,1.624-4.268,0-5.892C1992.227,1121.679,1991.181,1121.246,1990.067,1121.246z"/>
</g>
<g>
	<circle fill="#B5956F" cx="1960.068" cy="1153.412" r="4.666"/>
</g>
<g>
	<g>
		<circle fill="#B5956F" cx="2167.977" cy="608.95" r="7.583"/>
		<path fill="#B5956F" d="M2167.979,617.032C2167.979,617.032,2167.979,617.032,2167.979,617.032c-2.159,0-4.189-0.841-5.717-2.368
			c-3.151-3.151-3.151-8.278,0-11.43c1.526-1.526,3.556-2.367,5.715-2.367s4.188,0.841,5.716,2.367
			c1.526,1.526,2.367,3.557,2.367,5.715c0,2.159-0.841,4.189-2.367,5.716S2170.137,617.032,2167.979,617.032z M2167.977,601.867
			c-1.892,0-3.67,0.736-5.008,2.074c-2.762,2.762-2.762,7.254,0,10.016c1.338,1.338,3.117,2.075,5.009,2.075s3.67-0.736,5.008-2.074
			s2.074-3.116,2.074-5.009c0-1.892-0.736-3.67-2.074-5.008S2169.868,601.867,2167.977,601.867z"/>
	</g>
	<g>
		<circle fill="#B5956F" cx="2167.977" cy="608.95" r="4.666"/>
	</g>
</g>
<g>
	<g>
		<circle fill="#B5956F" cx="2208.977" cy="584.95" r="7.583"/>
		<path fill="#B5956F" d="M2208.979,593.032C2208.979,593.032,2208.979,593.032,2208.979,593.032c-2.159,0-4.189-0.841-5.717-2.368
			c-3.151-3.151-3.151-8.278,0-11.43c1.526-1.526,3.556-2.367,5.715-2.367s4.188,0.841,5.716,2.367
			c1.526,1.526,2.367,3.557,2.367,5.715c0,2.159-0.841,4.189-2.367,5.716S2211.137,593.032,2208.979,593.032z M2208.977,577.867
			c-1.892,0-3.67,0.736-5.008,2.074c-2.762,2.762-2.762,7.254,0,10.016c1.338,1.338,3.117,2.075,5.009,2.075s3.67-0.736,5.008-2.074
			s2.074-3.116,2.074-5.009c0-1.892-0.736-3.67-2.074-5.008S2210.868,577.867,2208.977,577.867z"/>
	</g>
	<g>
		<circle fill="#B5956F" cx="2208.977" cy="584.95" r="4.666"/>
	</g>
</g>
<g>
	<g>
		<circle fill="#B5956F" cx="2081.709" cy="702.288" r="7.583"/>
		<path fill="#B5956F" d="M2081.71,710.371c-2.158,0-4.188-0.841-5.715-2.368c-3.15-3.15-3.151-8.278-0.001-11.431
			c1.527-1.526,3.557-2.367,5.716-2.367s4.188,0.841,5.715,2.367c1.527,1.527,2.368,3.557,2.368,5.716s-0.841,4.188-2.368,5.715
			C2085.897,709.53,2083.868,710.371,2081.71,710.371z M2081.71,695.205c-1.892,0-3.671,0.736-5.009,2.074
			c-2.761,2.762-2.76,7.256,0.001,10.017c1.338,1.338,3.116,2.075,5.008,2.075s3.67-0.737,5.008-2.075s2.075-3.116,2.075-5.008
			s-0.737-3.671-2.075-5.009S2083.602,695.205,2081.71,695.205z"/>
	</g>
	<g>
		<circle fill="#B5956F" cx="2081.71" cy="702.288" r="4.667"/>
	</g>
</g>
<g>
	<g>
		<circle fill="#B5956F" cx="2073.511" cy="880.311" r="7.582"/>
		<path fill="#B5956F" d="M2073.511,888.393L2073.511,888.393c-2.159,0-4.188-0.841-5.715-2.367
			c-1.527-1.526-2.368-3.556-2.367-5.715c0-2.159,0.841-4.188,2.367-5.715s3.556-2.367,5.715-2.367c2.158,0,4.188,0.841,5.715,2.367
			s2.368,3.556,2.368,5.715s-0.841,4.188-2.367,5.715S2075.67,888.393,2073.511,888.393z M2073.511,873.229
			c-1.892,0-3.67,0.736-5.008,2.074s-2.074,3.116-2.074,5.008c-0.001,1.892,0.736,3.67,2.074,5.008s3.116,2.074,5.008,2.074
			s3.671-0.736,5.009-2.074s2.074-3.116,2.074-5.008s-0.737-3.67-2.075-5.008S2075.401,873.229,2073.511,873.229z"/>
	</g>
	<g>
		<circle fill="#B5956F" cx="2073.511" cy="880.311" r="4.666"/>
	</g>
</g>
<g>
	<g>
		<circle fill="#B5956F" cx="1922.19" cy="975.063" r="7.583"/>
		<path fill="#B5956F" d="M1922.189,983.146L1922.189,983.146c-2.159,0-4.188-0.841-5.715-2.367c-3.151-3.152-3.151-8.279,0-11.431
			c1.527-1.526,3.557-2.367,5.715-2.367c2.159,0,4.188,0.841,5.715,2.367c1.527,1.527,2.368,3.557,2.368,5.715
			c0.001,2.159-0.84,4.188-2.367,5.716C1926.379,982.305,1924.349,983.146,1922.189,983.146z M1922.189,967.98
			c-1.892,0-3.67,0.736-5.008,2.074c-2.761,2.761-2.761,7.255,0,10.017c1.337,1.338,3.116,2.074,5.008,2.074
			s3.671-0.736,5.009-2.074s2.074-3.116,2.074-5.008s-0.737-3.671-2.075-5.009S1924.081,967.98,1922.189,967.98z"/>
	</g>
	<g>
		<circle fill="#B5956F" cx="1922.19" cy="975.063" r="4.666"/>
	</g>
</g>
<g>
	<g>
		<circle fill="#B5956F" cx="2138.564" cy="799.701" r="7.582"/>
		<path fill="#B5956F" d="M2138.564,807.783c-2.159,0-4.188-0.841-5.715-2.367c-3.151-3.152-3.151-8.279,0-11.431
			c1.526-1.526,3.556-2.367,5.714-2.367c2.159,0,4.189,0.841,5.716,2.368c1.526,1.526,2.367,3.556,2.368,5.715
			c0,2.158-0.841,4.188-2.368,5.715C2142.753,806.942,2140.724,807.783,2138.564,807.783z M2138.563,792.618
			c-1.891,0-3.669,0.736-5.007,2.074c-2.761,2.761-2.761,7.255,0,10.017c1.338,1.338,3.116,2.074,5.008,2.074
			s3.67-0.736,5.008-2.074s2.075-3.116,2.075-5.008s-0.737-3.67-2.075-5.008S2140.456,792.618,2138.563,792.618z"/>
	</g>
	<g>
		<circle fill="#B5956F" cx="2138.565" cy="799.701" r="4.666"/>
	</g>
</g>
<g>
	<circle fill="#B5956F" cx="2062.268" cy="1078.928" r="4.666"/>
	<path fill="#B5956F" d="M2062.269,1084.094c-1.38,0-2.678-0.537-3.653-1.513c-2.015-2.015-2.015-5.291,0-7.306
		c0.976-0.976,2.273-1.513,3.653-1.513c1.379,0,2.677,0.537,3.652,1.513s1.513,2.273,1.513,3.653c0,1.379-0.537,2.677-1.513,3.652
		S2063.647,1084.094,2062.269,1084.094z M2062.269,1074.763c-1.113,0-2.159,0.433-2.946,1.22c-1.624,1.624-1.624,4.268,0,5.892
		c0.787,0.787,1.833,1.22,2.946,1.22c1.112,0,2.158-0.433,2.945-1.22s1.22-1.833,1.22-2.945c0-1.113-0.433-2.159-1.22-2.946
		S2063.381,1074.763,2062.269,1074.763z"/>
</g>
<g>
	<circle fill="#B5956F" cx="2600.365" cy="668.191" r="4.666"/>
</g>
<g>
	<circle fill="#B5956F" cx="2582.687" cy="617.986" r="4.666"/>
</g>
<g>
	<circle fill="#B5956F" cx="2608.85" cy="687.99" r="4.666"/>
</g>
<g>
	<circle fill="#B5956F" cx="2536.018" cy="804.663" r="4.666"/>
</g>
<g>
	<circle fill="#B5956F" cx="2391.768" cy="701.425" r="4.666"/>
</g>
<g>
	<circle fill="#B5956F" cx="2492.884" cy="786.985" r="4.666"/>
</g>
<g>
	<circle fill="#B5956F" cx="2406.618" cy="672.434" r="4.666"/>
</g>
<g>
	<polygon fill="#B5956F" points="2437,1531 2436,1531 2436,1193.968 2436.146,1193.821 2537.238,1092.576 2536.515,1073.349 
		2594.714,1015.149 2606.076,1015.101 2638.159,983.017 2638.366,983.016 2693.465,982.867 2711.94,964.39 2718.031,963.957 
		2747.142,934.847 2771.402,934.627 2802.688,903.34 2831.273,903.037 3058.86,675.446 3059.567,676.153 2831.691,904.033 
		2803.106,904.336 2771.82,935.623 2747.56,935.843 2718.475,964.928 2712.384,965.36 2693.881,983.865 2693.674,983.866 
		2638.575,984.015 2606.492,1016.099 2595.13,1016.147 2537.53,1073.747 2538.254,1092.975 2538.1,1093.129 2437,1194.382 	"/>
</g>
<g>
	<polygon fill="#B5956F" points="2588.576,977.446 2587.869,976.739 2601.582,963.026 2621.537,962.87 2627.976,956.432 
		2669.23,956.189 2686.556,938.864 2695.941,939.378 2703.9,931.419 2704.068,924.18 2725.478,902.771 2757.596,903.179 
		2792.12,868.655 2820.668,868.392 3003.553,685.506 3004.26,686.213 2821.086,869.388 2792.538,869.651 2758.004,904.185 
		2725.886,903.776 2705.059,924.604 2704.891,931.843 2696.332,940.401 2686.946,939.888 2669.646,957.188 2628.392,957.43 
		2621.955,963.866 2602,964.022 	"/>
</g>
<g>
	<polygon fill="#B5956F" points="2473.464,1501 2472.464,1501 2472.464,1230.737 2570.81,1132.393 2570.544,1111.444 
		2619.222,1062.767 2630.409,1062.892 2641.186,1052.116 2648.997,1052.01 2654.337,1057.35 2653.63,1058.057 2648.589,1053.016 
		2641.605,1053.11 2630.819,1063.896 2619.632,1063.771 2571.55,1111.853 2571.815,1132.801 2473.464,1231.151 	"/>
</g>
<g>
	<polygon fill="#B5956F" points="2415,1581.667 2414,1581.667 2414,1172.755 2414.146,1172.608 2589.446,997.473 2599.286,997.811 
		2599.251,998.811 2589.847,998.486 2415,1173.169 	"/>
</g>
<g>
	<polygon fill="#B5956F" points="2605.554,860.074 2599.183,853.703 2599.89,852.996 2605.964,859.07 2652.189,858.679 
		2696.146,814.723 2721.467,814.857 2959.713,576.611 2960.42,577.318 2721.879,815.859 2696.558,815.725 2652.607,859.675 	"/>
</g>
<g>
	<polygon fill="#B5956F" points="2615.446,885.522 2614.739,884.815 2624.332,875.223 2648.766,874.831 2702.516,821.081 
		2728.544,821.923 2966.783,583.683 2967.49,584.39 2728.944,822.937 2702.916,822.095 2649.186,875.825 2624.752,876.217 	"/>
</g>
<g>
	<polygon fill="#B5956F" points="2530.593,909.564 2529.886,908.857 2539.553,899.19 2546.801,899.014 2562.493,883.32 
		2574.111,883.785 2581.265,890.939 2603.903,890.951 2612.876,899.923 2632.348,899.734 2703.128,828.954 2703.336,828.955 
		2755.296,829.112 2784.6,799.808 2785.212,776.568 2972.439,589.34 2973.146,590.047 2786.2,776.994 2785.588,800.233 
		2755.708,830.114 2755.5,830.113 2703.54,829.956 2632.766,900.73 2612.466,900.927 2603.489,891.951 2580.851,891.939 
		2573.681,884.77 2562.892,884.338 2547.225,900.004 2539.977,900.181 	"/>
</g>
<g>
	<polygon fill="#B5956F" points="2625.465,937.968 2600.169,912.672 2575.433,912.809 2568.07,920.171 2567.363,919.464 
		2575.017,911.811 2600.581,911.67 2625.857,936.946 2632.237,936.614 2652.182,916.669 2652.838,899.042 2709.218,842.662 
		2709.423,842.66 2761.93,842.276 2993.652,610.553 2994.359,611.26 2762.348,843.272 2762.143,843.274 2709.636,843.658 
		2653.822,899.472 2653.166,917.099 2632.673,937.593 	"/>
</g>
<g>
	<polygon fill="#B5956F" points="2696.057,864.31 2695.35,863.603 2712.576,846.375 2764.382,846.896 2997.189,614.088 
		2997.896,614.795 2764.792,847.899 2712.986,847.379 	"/>
</g>
<g>
	<polygon fill="#B5956F" points="2763.545,861.875 2731.54,861.689 2731.546,860.689 2763.133,860.873 2784.179,839.826 
		2790.611,840.465 3007.089,623.988 3007.796,624.695 2790.984,841.506 2784.552,840.867 	"/>
</g>
<g>
	<polygon fill="#B5956F" points="2574.434,967.547 2573.727,966.84 2591.197,949.37 2614.905,949.703 2620.973,943.636 
		2636.813,943.352 2669.717,910.448 2697.721,910.729 2719.377,889.072 2732.353,888.824 2746.228,874.95 2764.389,875.174 
		2785.856,853.705 2794.719,853.329 3015.574,632.473 3016.281,633.18 2795.15,854.312 2786.288,854.688 2764.797,876.18 
		2746.636,875.956 2732.774,889.816 2719.799,890.064 2698.131,911.732 2670.127,911.452 2637.235,944.344 2621.395,944.628 
		2615.313,950.709 2591.605,950.376 	"/>
</g>
<g>
	<polygon fill="#B5956F" points="2409.071,669.556 2408.071,669.519 2408.269,664.203 2388.161,644.096 2388.159,643.891 
		2387.208,535.349 2387.355,535.2 2662.11,258.843 2662.819,259.548 2388.212,535.757 2389.157,643.678 2409.284,663.805 	"/>
</g>
<g>
	<polygon fill="#B5956F" points="2403.168,702 2390,702 2390,701 2402.754,701 2429.128,674.554 2428.661,670.442 2402.723,644.493 
		2402.722,644.286 2402.44,538.633 2402.587,538.486 2652.792,287.112 2653.501,287.817 2403.442,539.045 2403.721,644.077 
		2429.616,669.983 2430.177,674.919 2430.007,675.09 	"/>
</g>
<g>
	<polygon fill="#B5956F" points="2416.749,719.353 2416.042,718.646 2452.027,682.66 2451.575,673.569 2417.948,639.941 
		2417.947,639.736 2417.379,543.361 2417.525,543.214 2662.516,296.923 2663.225,297.628 2418.381,543.771 2418.946,639.525 
		2452.556,673.134 2453.049,683.053 	"/>
</g>
<g>
	<polygon fill="#B5956F" points="2511.501,713.696 2500.853,703.047 2501.103,686.326 2449.568,634.792 2449.571,634.581 
		2450.558,559.68 2450.7,559.536 2748.265,260.67 2748.974,261.376 2451.552,560.098 2450.574,634.384 2502.108,685.918 
		2501.858,702.639 2512.208,712.989 	"/>
</g>
<g>
	<polygon fill="#B5956F" points="2492.409,786.527 2491.702,785.82 2503.617,773.905 2504.292,754.846 2504.432,754.707 
		2548.521,710.618 2548.742,687.297 2482.942,621.497 2482.941,621.291 2482.728,564.278 2754.04,292.967 2754.747,293.674 
		2483.729,564.69 2483.94,621.081 2549.746,686.887 2549.517,711.036 2505.278,755.275 2504.604,774.335 2504.464,774.474 	"/>
</g>
<g>
	<polygon fill="#B5956F" points="2669.187,827.539 2668.479,826.832 2686.554,808.759 2697.916,808.709 2741.878,764.747 
		2751.912,764.547 2751.932,765.547 2742.3,765.739 2698.332,809.707 2686.97,809.757 	"/>
</g>
<g>
	<polygon fill="#B5956F" points="2651.244,853.969 2631.831,853.824 2616.087,838.08 2616.658,824.627 2617.658,824.67 
		2617.104,837.684 2632.249,852.828 2650.833,852.965 2661.87,841.927 2661.294,822.705 2680.901,803.097 2694.767,803.374 
		2940.621,557.52 2941.328,558.227 2695.173,804.382 2681.308,804.104 2662.306,823.107 2662.882,842.329 	"/>
</g>
<g>
	<polygon fill="#B5956F" points="2514.21,913.612 2513.21,913.606 2513.339,890.05 2523.96,879.428 2544.187,879 2553.168,870.019 
		2565.781,870.134 2605.906,830.009 2605.494,819.106 2615.041,809.561 2621.483,809.536 2638.057,826.109 2647.222,825.463 
		2691.716,780.97 2691.357,765.771 2940.154,516.974 2940.861,517.681 2692.367,766.176 2692.726,781.374 2647.665,826.434 
		2637.672,827.139 2621.071,810.538 2615.457,810.559 2606.51,819.505 2606.922,830.407 2566.191,871.138 2553.578,871.022 
		2544.61,879.992 2524.384,880.42 2514.337,890.466 	"/>
</g>
<g>
	<polygon fill="#B5956F" points="2650.653,816.375 2639.364,816.26 2639.374,815.26 2650.243,815.371 2687.09,778.524 
		2686.404,760.824 2948.276,498.952 2948.983,499.659 2687.42,761.223 2688.105,778.923 	"/>
</g>
<g>
	<polygon fill="#B5956F" points="2159.202,1536.5 2158.202,1536.5 2158.202,1313.495 2414.698,1057 2458.572,1057 
		2484.824,1030.521 2484.135,1019.666 2518.041,985.765 2517.876,953.411 2530.097,941.209 2530.305,941.21 2560.751,941.412 
		2560.745,942.412 2530.507,942.211 2518.878,953.823 2519.043,986.177 2485.162,1020.053 2485.852,1030.905 2458.988,1058 
		2415.112,1058 2159.202,1313.909 	"/>
</g>
<g>
	<polygon fill="#B5956F" points="2179.564,1554.5 2178.564,1554.5 2178.564,1354.932 2517.432,1016.064 2517.945,1009.894 
		2536.874,990.965 2536.571,978.54 2562.968,952.144 2580.149,951.933 2592.022,940.06 2592.412,925.724 2593.412,925.751 
		2593.011,940.485 2580.569,952.927 2563.388,953.138 2537.581,978.944 2537.884,991.369 2518.912,1010.341 2518.398,1016.512 
		2179.564,1355.346 	"/>
</g>
<g>
	<polygon fill="#B5956F" points="2534.836,861.481 2534.129,860.774 2545.555,849.349 2560.67,849.789 2585.842,824.618 
		2585.538,812.193 2619.991,777.739 2620.123,766.293 2620.268,766.149 2634.445,751.973 2634.087,736.774 2657.393,713.468 
		2657.417,703.545 2928.158,432.805 2928.865,433.512 2658.415,703.961 2658.392,713.884 2635.097,737.179 2635.455,752.377 
		2621.119,766.713 2620.987,778.158 2586.548,812.598 2586.852,825.022 2561.072,850.801 2545.957,850.36 	"/>
</g>
<g>
	<polygon fill="#B5956F" points="2584.087,792.103 2583.087,792.103 2583.089,779.287 2603.241,759.135 2614.06,759.63 
		2626.997,746.693 2626.746,722.902 2635.364,714.284 2635.225,703.11 2944.168,394.168 2944.875,394.875 2636.23,703.519 
		2636.37,714.692 2627.75,723.312 2628.001,747.104 2614.454,760.649 2603.636,760.154 2584.089,779.701 	"/>
</g>
<g>
	<polygon fill="#B5956F" points="2617.873,687.935 2610.369,687.797 2610.387,686.797 2617.467,686.927 2926.697,377.697 
		2927.404,378.404 	"/>
</g>
<g>
	<polygon fill="#B5956F" points="2600.977,668.72 2599.977,668.72 2599.979,659.158 2626.744,632.394 2645.354,632.169 
		2914.262,363.262 2914.969,363.969 2645.774,633.163 2627.164,633.388 2600.979,659.572 	"/>
</g>
<g>
	<polygon fill="#B5956F" points="2640.287,625.922 2621.64,625.845 2614.036,618.241 2583.329,618.072 2583.335,617.072 
		2614.452,617.243 2622.056,624.847 2639.875,624.92 2909.897,354.897 2910.604,355.604 	"/>
</g>
<g>
	<polygon fill="#B5956F" points="2536.297,805.778 2536.265,773.785 2596.905,713.146 2597.412,686.47 2570.128,659.185 
		2570.289,635.305 2563.295,628.311 2563.649,616.293 2581.706,598.236 2582.57,588.189 2571.196,576.815 2553.03,577.034 
		2542.314,566.317 2541.813,557.52 2812.536,286.796 2813.243,287.503 2542.837,557.91 2543.291,565.88 2553.44,576.028 
		2571.605,575.81 2583.607,587.811 2582.671,598.686 2564.638,616.719 2564.307,627.908 2571.291,634.893 2571.13,658.772 
		2598.42,686.063 2597.897,713.567 2537.265,774.199 2537.297,805.777 	"/>
</g>
<g>
	<polygon fill="#B5956F" points="2524.891,598.989 2524.68,593.938 2515.502,584.761 2515.945,566.416 2799.718,282.645 
		2800.425,283.352 2516.936,566.84 2516.512,584.356 2525.662,593.506 2525.891,598.948 	"/>
</g>
<g>
	<circle fill="#B5956F" cx="2599.658" cy="617.986" r="4.666"/>
	<path fill="#B5956F" d="M2599.657,623.152c-1.379,0-2.677-0.537-3.652-1.514c-2.014-2.014-2.014-5.291,0-7.306
		c0.976-0.976,2.273-1.513,3.652-1.513c1.38,0,2.678,0.537,3.653,1.513c2.014,2.015,2.014,5.292,0,7.306
		C2602.335,622.615,2601.037,623.152,2599.657,623.152z M2599.657,613.82c-1.112,0-2.158,0.434-2.945,1.22
		c-1.624,1.625-1.624,4.268,0,5.892c0.787,0.787,1.833,1.221,2.945,1.221c1.113,0,2.159-0.434,2.946-1.221
		c1.624-1.624,1.624-4.267,0-5.892C2601.816,614.254,2600.771,613.82,2599.657,613.82z"/>
</g>
<g>
	<circle fill="#B5956F" cx="2550.868" cy="588.995" r="4.666"/>
	<path fill="#B5956F" d="M2550.868,594.161c-1.38,0-2.678-0.537-3.653-1.513c-2.014-2.015-2.014-5.293,0-7.307
		c0.976-0.976,2.273-1.513,3.653-1.513c1.379,0,2.677,0.537,3.652,1.513c2.014,2.014,2.014,5.292,0,7.307
		C2553.545,593.624,2552.247,594.161,2550.868,594.161z M2550.868,584.829c-1.113,0-2.159,0.433-2.946,1.22
		c-1.624,1.624-1.624,4.268,0,5.893c0.787,0.787,1.833,1.22,2.946,1.22c1.112,0,2.158-0.433,2.945-1.22
		c1.624-1.625,1.624-4.269,0-5.893C2553.026,585.262,2551.98,584.829,2550.868,584.829z"/>
</g>
<g>
	<g>
		<circle fill="#B5956F" cx="2413.688" cy="721.931" r="7.582"/>
		<path fill="#B5956F" d="M2413.69,730.014C2413.689,730.014,2413.689,730.014,2413.69,730.014c-2.159,0-4.189-0.841-5.717-2.368
			c-3.151-3.151-3.151-8.278,0-11.43c1.526-1.526,3.556-2.367,5.715-2.367s4.188,0.841,5.715,2.367
			c1.527,1.527,2.368,3.557,2.368,5.716s-0.841,4.188-2.368,5.715C2417.877,729.173,2415.849,730.014,2413.69,730.014z
			 M2413.688,714.849c-1.892,0-3.67,0.736-5.008,2.074c-2.762,2.762-2.762,7.254,0,10.016c1.338,1.338,3.117,2.075,5.009,2.075
			s3.669-0.736,5.007-2.074s2.075-3.116,2.075-5.008s-0.737-3.671-2.075-5.009S2415.58,714.849,2413.688,714.849z"/>
	</g>
	<g>
		<circle fill="#B5956F" cx="2413.689" cy="721.931" r="4.666"/>
	</g>
</g>
<g>
	<g>
		<circle fill="#B5956F" cx="2512.684" cy="911.436" r="7.582"/>
		<path fill="#B5956F" d="M2512.685,919.519C2512.685,919.519,2512.685,919.519,2512.685,919.519c-2.16,0-4.189-0.841-5.716-2.368
			c-3.151-3.151-3.151-8.278,0-11.43c1.526-1.526,3.557-2.367,5.715-2.367c2.159,0,4.188,0.841,5.715,2.367
			c1.527,1.526,2.368,3.556,2.367,5.715c0,2.159-0.841,4.188-2.367,5.716C2516.872,918.678,2514.843,919.519,2512.685,919.519z
			 M2512.684,904.354c-1.892,0-3.67,0.736-5.008,2.074c-2.762,2.762-2.762,7.254,0,10.016c1.338,1.338,3.116,2.075,5.009,2.075l0,0
			c1.892,0,3.669-0.736,5.007-2.074c2.762-2.763,2.762-7.256,0-10.017C2516.354,905.09,2514.575,904.354,2512.684,904.354z"/>
	</g>
	<g>
		<circle fill="#B5956F" cx="2512.684" cy="911.436" r="4.666"/>
	</g>
</g>
<g>
	<g>
		<circle fill="#B5956F" cx="2729.765" cy="862.646" r="7.582"/>
		<path fill="#B5956F" d="M2729.767,870.728C2729.766,870.728,2729.766,870.728,2729.767,870.728c-2.159,0-4.189-0.841-5.716-2.367
			c-3.151-3.151-3.152-8.278-0.001-11.43c1.526-1.526,3.557-2.367,5.716-2.367s4.188,0.841,5.715,2.367
			c3.151,3.151,3.151,8.278,0,11.43C2733.954,869.887,2731.924,870.728,2729.767,870.728z M2729.766,855.563
			c-1.893,0-3.671,0.736-5.009,2.074c-2.761,2.761-2.761,7.254,0.001,10.016c1.338,1.338,3.116,2.074,5.008,2.074c0,0,0,0,0.001,0
			c1.891,0,3.669-0.736,5.007-2.074c2.762-2.762,2.762-7.254,0-10.016C2733.436,856.3,2731.657,855.563,2729.766,855.563z"/>
	</g>
	<g>
		<circle fill="#B5956F" cx="2729.765" cy="862.645" r="4.666"/>
	</g>
</g>
<g>
	<g>
		<circle fill="#B5956F" cx="2592.586" cy="924.871" r="7.583"/>
		<path fill="#B5956F" d="M2592.588,932.953C2592.587,932.953,2592.587,932.953,2592.588,932.953c-2.159,0-4.189-0.841-5.716-2.367
			c-3.151-3.151-3.151-8.279-0.001-11.431c1.526-1.526,3.557-2.367,5.716-2.367c2.158,0,4.188,0.841,5.715,2.367
			c3.151,3.152,3.151,8.279,0,11.431C2596.775,932.112,2594.745,932.953,2592.588,932.953z M2592.587,917.788
			c-1.893,0-3.671,0.736-5.009,2.074c-2.761,2.762-2.761,7.255,0.001,10.017c1.338,1.338,3.116,2.074,5.008,2.074h0.001
			c1.891,0,3.669-0.736,5.007-2.074c2.761-2.761,2.761-7.255,0-10.017C2596.257,918.524,2594.479,917.788,2592.587,917.788z"/>
	</g>
	<g>
		<circle fill="#B5956F" cx="2592.586" cy="924.871" r="4.666"/>
	</g>
</g>
<g>
	<g>
		<circle fill="#B5956F" cx="2754.514" cy="765.772" r="7.583"/>
		<path fill="#B5956F" d="M2754.516,773.854C2754.515,773.854,2754.515,773.854,2754.516,773.854c-2.16,0-4.189-0.841-5.717-2.368
			c-3.151-3.151-3.151-8.278,0-11.43c1.526-1.526,3.556-2.367,5.715-2.367s4.188,0.841,5.716,2.367
			c1.526,1.526,2.367,3.557,2.367,5.716c0,2.158-0.841,4.188-2.367,5.715S2756.673,773.854,2754.516,773.854z M2754.514,758.689
			c-1.892,0-3.67,0.736-5.008,2.074c-2.762,2.762-2.762,7.254,0,10.016c1.338,1.338,3.117,2.075,5.009,2.075l0,0
			c1.892,0,3.67-0.736,5.008-2.074s2.074-3.116,2.074-5.008c0-1.893-0.736-3.671-2.074-5.009S2756.405,758.689,2754.514,758.689z"/>
	</g>
	<g>
		<circle fill="#B5956F" cx="2754.514" cy="765.772" r="4.666"/>
	</g>
</g>
<g>
	<g>
		<circle fill="#B5956F" cx="2524.705" cy="603.844" r="7.582"/>
		<path fill="#B5956F" d="M2524.706,611.927C2524.705,611.927,2524.705,611.927,2524.706,611.927c-2.16,0-4.189-0.841-5.717-2.368
			c-3.151-3.151-3.151-8.278,0-11.43c1.526-1.526,3.556-2.367,5.715-2.367s4.188,0.841,5.716,2.367
			c1.526,1.526,2.367,3.556,2.367,5.715s-0.841,4.188-2.367,5.715C2528.894,611.086,2526.864,611.927,2524.706,611.927z
			 M2524.704,596.762c-1.892,0-3.67,0.736-5.008,2.074c-2.762,2.762-2.762,7.254,0,10.016c1.338,1.338,3.117,2.075,5.009,2.075l0,0
			c1.892,0,3.67-0.737,5.008-2.075s2.074-3.116,2.074-5.008s-0.736-3.67-2.074-5.008S2526.596,596.762,2524.704,596.762z"/>
	</g>
	<g>
		<circle fill="#B5956F" cx="2524.705" cy="603.844" r="4.666"/>
	</g>
</g>
<g>
	<g>
		<circle fill="#B5956F" cx="2513.391" cy="712.739" r="7.582"/>
		<path fill="#B5956F" d="M2513.392,720.821L2513.392,720.821c-2.159-0.001-4.189-0.842-5.716-2.368
			c-3.151-3.151-3.151-8.278,0-11.43c1.526-1.526,3.556-2.367,5.715-2.367s4.188,0.841,5.715,2.367
			c1.527,1.526,2.368,3.557,2.367,5.716c0,2.158-0.841,4.188-2.367,5.715S2515.55,720.821,2513.392,720.821z M2513.391,705.656
			c-1.892,0-3.67,0.736-5.008,2.074c-2.762,2.762-2.762,7.254,0,10.016c1.338,1.338,3.117,2.074,5.009,2.075
			c1.892,0,3.67-0.737,5.007-2.074c1.338-1.338,2.074-3.116,2.074-5.008c0.001-1.892-0.736-3.671-2.074-5.009
			S2515.282,705.656,2513.391,705.656z"/>
	</g>
	<g>
		<circle fill="#B5956F" cx="2513.391" cy="712.739" r="4.666"/>
	</g>
</g>
<g>
	<circle fill="#B5956F" cx="2388.233" cy="628.593" r="4.666"/>
	<path fill="#B5956F" d="M2388.233,633.76c-1.38,0-2.678-0.538-3.653-1.514c-2.015-2.015-2.015-5.291,0-7.306
		c0.976-0.976,2.273-1.513,3.653-1.513c1.379,0,2.677,0.537,3.652,1.513s1.513,2.273,1.513,3.652c0,1.38-0.537,2.678-1.513,3.653
		S2389.612,633.76,2388.233,633.76z M2388.233,624.428c-1.113,0-2.159,0.433-2.946,1.22c-1.624,1.624-1.624,4.268,0,5.892
		c0.787,0.787,1.833,1.221,2.946,1.221c1.112,0,2.158-0.434,2.945-1.221s1.22-1.833,1.22-2.946c0-1.112-0.433-2.158-1.22-2.945
		S2389.346,624.428,2388.233,624.428z"/>
</g>
<g>
	<polygon fill="#B5956F" points="2640.753,614.144 2628.143,613.962 2618.981,604.801 2619.688,604.094 2628.562,612.968 
		2640.345,613.138 2929.734,323.747 2930.441,324.454 	"/>
</g>
<g>
	<circle fill="#B5956F" cx="2571.374" cy="647.685" r="4.666"/>
	<path fill="#B5956F" d="M2571.374,652.852c-1.38,0-2.678-0.538-3.653-1.514c-2.015-2.015-2.015-5.291,0-7.306
		c0.976-0.976,2.273-1.513,3.653-1.513c1.379,0,2.677,0.537,3.652,1.513s1.513,2.273,1.513,3.652c0,1.38-0.537,2.678-1.513,3.653
		S2572.753,652.852,2571.374,652.852z M2571.374,643.52c-1.113,0-2.159,0.433-2.946,1.22c-1.624,1.624-1.624,4.268,0,5.892
		c0.787,0.787,1.833,1.221,2.946,1.221c1.112,0,2.158-0.434,2.945-1.221s1.22-1.833,1.22-2.946c0-1.112-0.433-2.158-1.22-2.945
		S2572.486,643.52,2571.374,643.52z"/>
</g>
<g>
	<circle fill="#B5956F" cx="2738.892" cy="623.551" r="4.666"/>
	<path fill="#B5956F" d="M2738.893,628.717c-1.38,0-2.678-0.537-3.653-1.513c-0.977-0.976-1.514-2.273-1.514-3.652
		c0-1.38,0.537-2.678,1.514-3.653c0.976-0.976,2.273-1.513,3.653-1.513c1.379,0,2.677,0.537,3.652,1.513s1.513,2.273,1.513,3.653
		c0,1.379-0.537,2.677-1.513,3.652S2740.271,628.717,2738.893,628.717z M2738.893,619.386c-1.113,0-2.159,0.433-2.946,1.22
		s-1.221,1.833-1.221,2.946c0,1.112,0.434,2.158,1.221,2.945s1.833,1.22,2.946,1.22c1.112,0,2.158-0.433,2.945-1.22
		s1.22-1.833,1.22-2.945c0-1.113-0.433-2.159-1.22-2.946S2740.005,619.386,2738.893,619.386z"/>
</g>
<g>
	<circle fill="#B5956F" cx="2668.892" cy="610.552" r="4.666"/>
	<path fill="#B5956F" d="M2668.893,615.718c-1.38,0-2.678-0.537-3.653-1.513c-0.977-0.976-1.514-2.273-1.514-3.653
		s0.537-2.678,1.514-3.653c0.976-0.976,2.273-1.513,3.653-1.513c1.379,0,2.677,0.537,3.652,1.513s1.513,2.273,1.513,3.653
		s-0.537,2.678-1.513,3.653S2670.271,615.718,2668.893,615.718z M2668.893,606.386c-1.113,0-2.159,0.433-2.946,1.22
		s-1.221,1.833-1.221,2.946s0.434,2.159,1.221,2.946s1.833,1.22,2.946,1.22c1.112,0,2.158-0.433,2.945-1.22s1.22-1.833,1.22-2.946
		s-0.433-2.159-1.22-2.946S2670.005,606.386,2668.893,606.386z"/>
</g>
<g>
	<circle fill="#B5956F" cx="2382.892" cy="1089.551" r="4.666"/>
	<path fill="#B5956F" d="M2382.893,1094.717c-1.38,0-2.678-0.537-3.653-1.513c-0.977-0.976-1.514-2.273-1.514-3.652
		c0-1.38,0.537-2.678,1.514-3.653c0.976-0.976,2.273-1.513,3.653-1.513c1.379,0,2.677,0.537,3.652,1.513s1.513,2.273,1.513,3.653
		c0,1.379-0.537,2.677-1.513,3.652S2384.271,1094.717,2382.893,1094.717z M2382.893,1085.386c-1.113,0-2.159,0.433-2.946,1.22
		s-1.221,1.833-1.221,2.946c0,1.112,0.434,2.158,1.221,2.945s1.833,1.22,2.946,1.22c1.112,0,2.158-0.433,2.945-1.22
		s1.22-1.833,1.22-2.945c0-1.113-0.433-2.159-1.22-2.946S2384.005,1085.386,2382.893,1085.386z"/>
</g>
<g>
	<circle fill="#B5956F" cx="2586.892" cy="1096.551" r="4.666"/>
	<path fill="#B5956F" d="M2586.893,1101.717c-1.38,0-2.678-0.537-3.653-1.513c-0.977-0.976-1.514-2.273-1.514-3.652
		c0-1.38,0.537-2.678,1.514-3.653c0.976-0.976,2.273-1.513,3.653-1.513c1.379,0,2.677,0.537,3.652,1.513s1.513,2.273,1.513,3.653
		c0,1.379-0.537,2.677-1.513,3.652S2588.271,1101.717,2586.893,1101.717z M2586.893,1092.386c-1.113,0-2.159,0.433-2.946,1.22
		s-1.221,1.833-1.221,2.946c0,1.112,0.434,2.158,1.221,2.945s1.833,1.22,2.946,1.22c1.112,0,2.158-0.433,2.945-1.22
		s1.22-1.833,1.22-2.945c0-1.113-0.433-2.159-1.22-2.946S2588.005,1092.386,2586.893,1092.386z"/>
</g>
<g>
	<circle fill="#B5956F" cx="2619.457" cy="603.844" r="4.666"/>
</g>
<g>
	<circle fill="#B5956F" cx="2669.662" cy="826.583" r="4.666"/>
</g>
<g>
	<circle fill="#B5956F" cx="2695.117" cy="866.181" r="4.666"/>
</g>
<g>
	<circle fill="#B5956F" cx="2618.042" cy="821.633" r="4.666"/>
</g>
<g>
	<circle fill="#B5956F" cx="2615.214" cy="885.273" r="4.666"/>
</g>
<g>
	<circle fill="#B5956F" cx="2599.658" cy="998.41" r="4.666"/>
</g>
<g>
	<circle fill="#B5956F" cx="2562.888" cy="941.841" r="4.666"/>
</g>
<g>
	<circle fill="#B5956F" cx="2639.962" cy="815.269" r="4.666"/>
</g>
<g>
	<circle fill="#B5956F" cx="2533.897" cy="861.938" r="4.666"/>
	<path fill="#B5956F" d="M2533.897,867.104c-1.38,0-2.678-0.537-3.653-1.513c-2.015-2.015-2.015-5.291,0-7.306
		c0.976-0.976,2.273-1.513,3.653-1.513c1.379,0,2.677,0.537,3.652,1.513s1.513,2.273,1.513,3.653c0,1.379-0.537,2.677-1.513,3.652
		S2535.276,867.104,2533.897,867.104z M2533.897,857.772c-1.113,0-2.159,0.433-2.946,1.22c-1.624,1.624-1.624,4.268,0,5.892
		c0.787,0.787,1.833,1.22,2.946,1.22c1.112,0,2.158-0.433,2.945-1.22s1.22-1.833,1.22-2.945c0-1.113-0.433-2.159-1.22-2.946
		S2535.01,857.772,2533.897,857.772z"/>
</g>
<g>
	<circle fill="#B5956F" cx="2566.423" cy="921.335" r="4.666"/>
	<path fill="#B5956F" d="M2566.423,926.502c-1.379,0-2.677-0.538-3.652-1.514s-1.513-2.273-1.513-3.653
		c0-1.379,0.537-2.677,1.513-3.652s2.273-1.513,3.652-1.513c1.38,0,2.678,0.537,3.653,1.513c2.015,2.015,2.015,5.291,0,7.306
		C2569.101,925.964,2567.803,926.502,2566.423,926.502z M2566.423,917.17c-1.112,0-2.158,0.433-2.945,1.22s-1.22,1.833-1.22,2.945
		c0,1.113,0.433,2.159,1.22,2.946s1.833,1.221,2.945,1.221c1.113,0,2.159-0.434,2.946-1.221c1.624-1.624,1.624-4.268,0-5.892
		C2568.582,917.603,2567.536,917.17,2566.423,917.17z"/>
</g>
<g>
	<circle fill="#B5956F" cx="2530.361" cy="909.314" r="4.666"/>
	<path fill="#B5956F" d="M2530.36,914.48c-1.379,0-2.677-0.537-3.652-1.513c-2.014-2.014-2.014-5.292,0-7.307
		c0.976-0.976,2.273-1.513,3.652-1.513c1.38,0,2.678,0.537,3.653,1.513c0.977,0.977,1.514,2.273,1.514,3.653
		s-0.537,2.678-1.514,3.653C2533.038,913.943,2531.74,914.48,2530.36,914.48z M2530.36,905.148c-1.112,0-2.158,0.433-2.945,1.22
		c-1.624,1.625-1.624,4.269,0,5.893c0.787,0.786,1.833,1.22,2.945,1.22c1.113,0,2.159-0.434,2.946-1.22
		c0.787-0.787,1.221-1.833,1.221-2.946c0-1.112-0.434-2.159-1.221-2.946S2531.474,905.148,2530.36,905.148z"/>
</g>
<g>
	<circle fill="#B5956F" cx="2588.344" cy="975.783" r="4.666"/>
	<path fill="#B5956F" d="M2588.345,980.949c-1.38,0-2.678-0.538-3.653-1.514c-2.015-2.015-2.015-5.291,0-7.306
		c0.976-0.976,2.273-1.513,3.653-1.513c1.379,0,2.677,0.537,3.652,1.513s1.513,2.273,1.513,3.652c0,1.38-0.537,2.678-1.513,3.653
		S2589.724,980.949,2588.345,980.949z M2588.345,971.617c-1.113,0-2.159,0.433-2.946,1.22c-1.624,1.624-1.624,4.268,0,5.892
		c0.787,0.787,1.833,1.221,2.946,1.221c1.112,0,2.158-0.434,2.945-1.221s1.22-1.833,1.22-2.946c0-1.112-0.433-2.158-1.22-2.945
		S2589.457,971.617,2588.345,971.617z"/>
</g>
<g>
	<circle fill="#B5956F" cx="2573.495" cy="836.482" r="4.666"/>
	<path fill="#B5956F" d="M2573.495,841.648c-1.38,0-2.678-0.537-3.653-1.513c-2.014-2.014-2.014-5.292,0-7.307
		c0.976-0.976,2.273-1.513,3.653-1.513c1.379,0,2.677,0.537,3.652,1.513c2.014,2.015,2.014,5.293,0,7.307
		C2576.172,841.111,2574.874,841.648,2573.495,841.648z M2573.495,832.316c-1.113,0-2.159,0.433-2.946,1.22
		c-1.624,1.625-1.624,4.269,0,5.893c0.787,0.787,1.833,1.22,2.946,1.22c1.112,0,2.158-0.433,2.945-1.22
		c1.624-1.624,1.624-4.268,0-5.893C2575.653,832.749,2574.607,832.316,2573.495,832.316z"/>
</g>
<g>
	<circle fill="#B5956F" cx="2671.783" cy="690.111" r="4.666"/>
	<path fill="#B5956F" d="M2671.782,695.277c-1.379,0-2.677-0.537-3.652-1.513c-2.014-2.014-2.014-5.292,0-7.307
		c0.976-0.976,2.273-1.513,3.652-1.513c1.38,0,2.678,0.537,3.653,1.513c2.014,2.015,2.014,5.293,0,7.307
		C2674.46,694.74,2673.162,695.277,2671.782,695.277z M2671.782,685.945c-1.112,0-2.158,0.433-2.945,1.22
		c-1.624,1.625-1.624,4.269,0,5.893c0.787,0.787,1.833,1.22,2.945,1.22c1.113,0,2.159-0.433,2.946-1.22
		c1.624-1.624,1.624-4.268,0-5.893C2673.941,686.378,2672.896,685.945,2671.782,685.945z"/>
</g>
<g>
	<circle fill="#B5956F" cx="2755.928" cy="743.144" r="4.666"/>
	<path fill="#B5956F" d="M2755.929,748.311c-1.38,0-2.678-0.538-3.653-1.514c-2.015-2.015-2.015-5.291,0-7.306
		c0.976-0.976,2.273-1.513,3.653-1.513c1.379,0,2.677,0.537,3.652,1.513s1.513,2.273,1.513,3.652c0,1.38-0.537,2.678-1.513,3.653
		S2757.308,748.311,2755.929,748.311z M2755.929,738.979c-1.113,0-2.159,0.433-2.946,1.22c-1.624,1.624-1.624,4.268,0,5.892
		c0.787,0.787,1.833,1.221,2.946,1.221c1.112,0,2.158-0.434,2.945-1.221s1.22-1.833,1.22-2.946c0-1.112-0.433-2.158-1.22-2.945
		S2757.041,738.979,2755.929,738.979z"/>
</g>
<g>
	<circle fill="#B5956F" cx="2599.658" cy="852.746" r="4.666"/>
	<path fill="#B5956F" d="M2599.657,857.912c-1.379,0-2.677-0.538-3.652-1.514s-1.513-2.273-1.513-3.653
		c0-1.379,0.537-2.677,1.513-3.652s2.273-1.513,3.652-1.513c1.38,0,2.678,0.537,3.653,1.513c2.015,2.015,2.015,5.291,0,7.306
		C2602.335,857.374,2601.037,857.912,2599.657,857.912z M2599.657,848.58c-1.112,0-2.158,0.433-2.945,1.22s-1.22,1.833-1.22,2.945
		c0,1.113,0.433,2.159,1.22,2.946s1.833,1.221,2.945,1.221c1.113,0,2.159-0.434,2.946-1.221c1.624-1.624,1.624-4.268,0-5.892
		C2601.816,849.013,2600.771,848.58,2599.657,848.58z"/>
</g>
<g>
	<circle fill="#B5956F" cx="2756.635" cy="691.526" r="4.666"/>
	<path fill="#B5956F" d="M2756.636,696.691c-1.38,0-2.678-0.537-3.653-1.513c-2.015-2.015-2.015-5.291,0-7.306
		c0.976-0.976,2.273-1.513,3.653-1.513c1.379,0,2.677,0.537,3.652,1.513s1.513,2.273,1.513,3.653c0,1.379-0.537,2.677-1.513,3.652
		S2758.015,696.691,2756.636,696.691z M2756.636,687.36c-1.113,0-2.159,0.433-2.946,1.22c-1.624,1.624-1.624,4.268,0,5.892
		c0.787,0.787,1.833,1.22,2.946,1.22c1.112,0,2.158-0.433,2.945-1.22s1.22-1.833,1.22-2.945c0-1.113-0.433-2.159-1.22-2.946
		S2757.748,687.36,2756.636,687.36z"/>
</g>
<g>
	<polygon fill="#B5956F" points="2642.218,798.723 2642.169,781.019 2671.308,751.88 2672.015,752.587 2643.171,781.431 
		2643.218,798.721 	"/>
</g>
<g>
	<circle fill="#B5956F" cx="2642.792" cy="801.127" r="4.666"/>
	<path fill="#B5956F" d="M2642.792,806.293c-1.38,0-2.678-0.537-3.653-1.513c-2.015-2.015-2.015-5.291,0-7.306
		c0.976-0.976,2.273-1.513,3.653-1.513c1.379,0,2.677,0.537,3.652,1.513s1.513,2.273,1.513,3.653c0,1.379-0.537,2.677-1.513,3.652
		S2644.171,806.293,2642.792,806.293z M2642.792,796.962c-1.113,0-2.159,0.433-2.946,1.22c-1.624,1.624-1.624,4.268,0,5.892
		c0.787,0.787,1.833,1.22,2.946,1.22c1.112,0,2.158-0.433,2.945-1.22s1.22-1.833,1.22-2.945c0-1.113-0.433-2.159-1.22-2.946
		S2643.904,796.962,2642.792,796.962z"/>
</g>
<g>
	<circle fill="#B5956F" cx="2672.49" cy="751.629" r="4.666"/>
	<path fill="#B5956F" d="M2672.489,756.795c-1.379,0-2.677-0.537-3.652-1.513s-1.513-2.273-1.513-3.652
		c0-1.38,0.537-2.678,1.513-3.653s2.273-1.513,3.652-1.513c1.38,0,2.678,0.537,3.653,1.513c2.015,2.015,2.015,5.291,0,7.306
		C2675.167,756.258,2673.869,756.795,2672.489,756.795z M2672.489,747.464c-1.112,0-2.158,0.433-2.945,1.22s-1.22,1.833-1.22,2.946
		c0,1.112,0.433,2.158,1.22,2.945s1.833,1.22,2.945,1.22c1.113,0,2.159-0.433,2.946-1.22c1.624-1.624,1.624-4.268,0-5.892
		C2674.648,747.896,2673.603,747.464,2672.489,747.464z"/>
</g>
<g>
	<g>
		<circle fill="#B5956F" cx="2656.226" cy="767.893" r="7.583"/>
		<path fill="#B5956F" d="M2656.228,775.976C2656.227,775.976,2656.227,775.976,2656.228,775.976c-2.159,0-4.189-0.841-5.716-2.367
			c-3.151-3.151-3.151-8.279-0.001-11.431c1.526-1.526,3.557-2.367,5.715-2.367c2.159,0,4.189,0.841,5.716,2.367
			c3.151,3.152,3.151,8.279,0,11.431C2660.415,775.135,2658.385,775.976,2656.228,775.976z M2656.226,760.811
			c-1.892,0-3.67,0.736-5.008,2.074c-2.761,2.762-2.761,7.255,0.001,10.017c1.338,1.338,3.116,2.074,5.008,2.074c0,0,0,0,0.001,0
			c1.891,0,3.669-0.736,5.007-2.074c2.761-2.761,2.761-7.255,0-10.017C2659.896,761.547,2658.118,760.811,2656.226,760.811z"/>
	</g>
	<g>
		<circle fill="#B5956F" cx="2656.226" cy="767.893" r="4.666"/>
	</g>
</g>
<g>
	<g>
		<circle fill="#B5956F" cx="2654.836" cy="1062.342" r="7.583"/>
		<path fill="#B5956F" d="M2654.837,1070.425c-2.159,0-4.189-0.841-5.716-2.367c-3.151-3.152-3.151-8.279,0-11.431
			c1.526-1.526,3.556-2.367,5.714-2.367c2.159,0,4.189,0.841,5.716,2.368c1.527,1.526,2.368,3.556,2.368,5.715
			c0,2.158-0.841,4.188-2.367,5.715C2659.025,1069.584,2656.995,1070.425,2654.837,1070.425z M2654.835,1055.26
			c-1.891,0-3.669,0.736-5.007,2.074c-2.761,2.761-2.761,7.255,0,10.017c1.338,1.338,3.116,2.074,5.009,2.074
			c1.892,0,3.67-0.736,5.008-2.074s2.074-3.117,2.074-5.008c0-1.892-0.737-3.67-2.075-5.008S2656.728,1055.26,2654.835,1055.26z"/>
	</g>
	<g>
		<circle fill="#B5956F" cx="2654.836" cy="1062.342" r="4.666"/>
	</g>
</g>
<g>
	<polygon fill="#B5956F" points="2550.464,1559.667 2549.464,1559.667 2549.464,1242.737 2647.81,1144.393 2647.544,1123.444 
		2696.222,1074.767 2707.409,1074.892 2718.186,1064.116 2725.997,1064.01 2731.337,1069.35 2730.63,1070.057 2725.589,1065.016 
		2718.605,1065.11 2707.819,1075.896 2696.632,1075.771 2648.55,1123.853 2648.815,1144.801 2550.464,1243.151 	"/>
</g>
<g>
	<polygon fill="#B5956F" points="2557.535,1625 2556.535,1625 2556.535,1249.809 2665.428,1140.916 2673.564,1141.265 
		2715.78,1099.048 2716.487,1099.755 2673.961,1142.282 2665.824,1141.934 2557.535,1250.223 	"/>
</g>
<g>
	<polygon fill="#B5956F" points="2571.677,1673 2570.677,1673 2570.677,1263.95 2672.852,1161.776 2691.556,1161.457 
		2778.268,1074.745 2778.489,1066.408 2779.489,1066.436 2779.256,1075.171 2691.978,1162.449 2673.273,1162.769 2571.677,1264.364 
			"/>
</g>
<g>
	<circle fill="#B5956F" cx="2779.25" cy="1066.555" r="4.666"/>
</g>
<g>
	<circle fill="#B5956F" cx="2716.25" cy="1099.555" r="4.666"/>
</g>
<g>
	<g>
		<circle fill="#B5956F" cx="2731.836" cy="1074.342" r="7.583"/>
		<path fill="#B5956F" d="M2731.837,1082.425c-2.159,0-4.189-0.841-5.716-2.367c-3.151-3.152-3.151-8.279,0-11.431
			c1.526-1.526,3.556-2.367,5.714-2.367c2.159,0,4.189,0.841,5.716,2.368c1.527,1.526,2.368,3.556,2.368,5.715
			c0,2.158-0.841,4.188-2.367,5.715C2736.025,1081.584,2733.995,1082.425,2731.837,1082.425z M2731.835,1067.26
			c-1.891,0-3.669,0.736-5.007,2.074c-2.761,2.761-2.761,7.255,0,10.017c1.338,1.338,3.116,2.074,5.009,2.074
			c1.892,0,3.67-0.736,5.008-2.074s2.074-3.117,2.074-5.008c0-1.892-0.737-3.67-2.075-5.008S2733.728,1067.26,2731.835,1067.26z"/>
	</g>
	<g>
		<circle fill="#B5956F" cx="2731.836" cy="1074.342" r="4.666"/>
	</g>
</g>
<g>
	<g>
		<circle fill="#B5956F" cx="2447.928" cy="1086.588" r="7.583"/>
		<path fill="#B5956F" d="M2447.929,1094.671c-2.159,0-4.188-0.841-5.716-2.367c-1.526-1.526-2.367-3.557-2.367-5.715
			c0-2.159,0.841-4.189,2.367-5.716s3.556-2.367,5.714-2.367c2.159,0,4.189,0.841,5.716,2.368c1.527,1.526,2.368,3.556,2.368,5.715
			c0.001,2.158-0.84,4.188-2.367,5.715C2452.117,1093.83,2450.088,1094.671,2447.929,1094.671z M2447.927,1079.506
			c-1.891,0-3.669,0.736-5.007,2.074s-2.074,3.116-2.074,5.009c0,1.892,0.736,3.67,2.074,5.008s3.117,2.074,5.009,2.074
			s3.67-0.736,5.008-2.074s2.074-3.116,2.074-5.008s-0.737-3.67-2.075-5.008S2449.819,1079.506,2447.927,1079.506z"/>
	</g>
	<g>
		<circle fill="#B5956F" cx="2447.928" cy="1086.588" r="4.666"/>
	</g>
</g>
<g>
	<g>
		<circle fill="#B5956F" cx="2575.195" cy="969.25" r="7.582"/>
		<path fill="#B5956F" d="M2575.195,977.333c-2.159,0-4.188-0.841-5.715-2.367c-1.527-1.527-2.368-3.557-2.368-5.716
			s0.841-4.188,2.368-5.715c1.526-1.526,3.556-2.367,5.714-2.367c2.159,0,4.188,0.841,5.716,2.367c3.151,3.152,3.151,8.279,0,11.431
			C2579.384,976.492,2577.354,977.333,2575.195,977.333z M2575.194,962.168c-1.892,0-3.669,0.736-5.007,2.074
			s-2.075,3.116-2.075,5.008s0.737,3.671,2.075,5.009s3.116,2.074,5.008,2.074s3.67-0.736,5.008-2.074
			c2.761-2.761,2.761-7.255,0-10.017C2578.865,962.904,2577.086,962.168,2575.194,962.168z"/>
	</g>
	<g>
		<circle fill="#B5956F" cx="2575.195" cy="969.25" r="4.666"/>
	</g>
</g>
<g>
	<g>
		<circle fill="#B5956F" cx="2583.394" cy="791.228" r="7.582"/>
		<path fill="#B5956F" d="M2583.395,799.311c-2.159,0-4.188-0.841-5.715-2.368c-3.151-3.15-3.152-8.277-0.001-11.43
			c1.526-1.526,3.557-2.367,5.716-2.367s4.188,0.841,5.715,2.367c3.151,3.151,3.151,8.278,0,11.43
			C2587.582,798.47,2585.553,799.311,2583.395,799.311z M2583.395,784.146c-1.893,0-3.671,0.736-5.009,2.074
			c-2.761,2.762-2.761,7.255,0.001,10.016c1.338,1.338,3.116,2.075,5.008,2.075c1.891,0,3.67-0.737,5.008-2.075
			c2.762-2.762,2.762-7.254,0-10.016C2587.064,784.882,2585.286,784.146,2583.395,784.146z"/>
	</g>
	<g>
		<circle fill="#B5956F" cx="2583.394" cy="791.228" r="4.666"/>
	</g>
</g>
<g>
	<g>
		<circle fill="#B5956F" cx="2734.715" cy="696.475" r="7.583"/>
		<path fill="#B5956F" d="M2734.716,704.558L2734.716,704.558c-2.159,0-4.188-0.841-5.716-2.367c-3.151-3.152-3.151-8.279,0-11.431
			c1.526-1.526,3.556-2.367,5.715-2.367s4.188,0.841,5.716,2.367c3.151,3.152,3.151,8.279,0,11.431
			C2738.904,703.717,2736.874,704.558,2734.716,704.558z M2734.715,689.393c-1.892,0-3.67,0.736-5.008,2.074
			c-2.761,2.761-2.761,7.255,0,10.017c1.338,1.338,3.117,2.074,5.009,2.074l0,0c1.892,0,3.67-0.736,5.008-2.074
			c2.761-2.761,2.761-7.255,0-10.017C2738.386,690.129,2736.606,689.393,2734.715,689.393z"/>
	</g>
	<g>
		<circle fill="#B5956F" cx="2734.715" cy="696.475" r="4.666"/>
	</g>
</g>
</svg>
